<?xml version="1.0" encoding="UTF-8" standalone="no"?>
<!DOCTYPE svg PUBLIC "-//W3C//DTD SVG 1.1//EN"
 "http://www.w3.org/Graphics/SVG/1.1/DTD/svg11.dtd">
<!-- Generated by graphviz version 6.0.2 (20221011.1828)
 -->
<!-- Title: structs Pages: 1 -->
<svg width="403pt" height="73pt"
 viewBox="0.00 0.00 403.00 73.00" xmlns="http://www.w3.org/2000/svg" xmlns:xlink="http://www.w3.org/1999/xlink">
<g id="graph0" class="graph" transform="scale(1 1) rotate(0) translate(4 69)">
<title>structs</title>
<polygon fill="white" stroke="none" points="-4,4 -4,-69 399,-69 399,4 -4,4"/>
<!-- label0 -->
<g id="node1" class="node">
<title>label0</title>
<path fill="#f593a8" stroke="black" d="M12,-0.5C12,-0.5 175,-0.5 175,-0.5 181,-0.5 187,-6.5 187,-12.5 187,-12.5 187,-34.5 187,-34.5 187,-40.5 181,-46.5 175,-46.5 175,-46.5 12,-46.5 12,-46.5 6,-46.5 0,-40.5 0,-34.5 0,-34.5 0,-12.5 0,-12.5 0,-6.5 6,-0.5 12,-0.5"/>
<text text-anchor="middle" x="37.5" y="-31.3" font-family="Times,serif" font-size="14.00">phys: 0</text>
<polyline fill="none" stroke="black" points="0,-23.5 75,-23.5"/>
<text text-anchor="middle" x="37.5" y="-8.3" font-family="Times,serif" font-size="14.00">log: 48879</text>
<polyline fill="none" stroke="black" points="75,-0.5 75,-46.5"/>
<text text-anchor="middle" x="112" y="-19.8" font-family="Times,serif" font-size="14.00">val: 48879</text>
<polyline fill="none" stroke="black" points="149,-0.5 149,-46.5"/>
<text text-anchor="middle" x="168" y="-31.3" font-family="Times,serif" font-size="14.00">n: 0</text>
<polyline fill="none" stroke="black" points="149,-23.5 187,-23.5"/>
<text text-anchor="middle" x="168" y="-8.3" font-family="Times,serif" font-size="14.00">p: 0</text>
</g>
<!-- label0&#45;&gt;label0 -->
<g id="edge2" class="edge">
<title>label0&#45;&gt;label0</title>
<path fill="none" stroke="red" d="M53.58,-46.55C50.31,-56.49 63.62,-65 93.5,-65 112.64,-65 124.99,-61.51 130.52,-56.38"/>
<polygon fill="red" stroke="red" points="133.95,-57.13 133.42,-46.55 127.24,-55.15 133.95,-57.13"/>
</g>
<!-- label1 -->
<g id="node2" class="node">
<title>label1</title>
<path fill="#0ba172" stroke="black" d="M235,-0.5C235,-0.5 383,-0.5 383,-0.5 389,-0.5 395,-6.5 395,-12.5 395,-12.5 395,-34.5 395,-34.5 395,-40.5 389,-46.5 383,-46.5 383,-46.5 235,-46.5 235,-46.5 229,-46.5 223,-40.5 223,-34.5 223,-34.5 223,-12.5 223,-12.5 223,-6.5 229,-0.5 235,-0.5"/>
<text text-anchor="middle" x="251" y="-31.3" font-family="Times,serif" font-size="14.00">phys: 1</text>
<polyline fill="none" stroke="black" points="223,-23.5 279,-23.5"/>
<text text-anchor="middle" x="251" y="-8.3" font-family="Times,serif" font-size="14.00">log: 0</text>
<polyline fill="none" stroke="black" points="279,-0.5 279,-46.5"/>
<text text-anchor="middle" x="316" y="-19.8" font-family="Times,serif" font-size="14.00">val: 48879</text>
<polyline fill="none" stroke="black" points="353,-0.5 353,-46.5"/>
<text text-anchor="middle" x="374" y="-31.3" font-family="Times,serif" font-size="14.00">n: 0</text>
<polyline fill="none" stroke="black" points="353,-23.5 395,-23.5"/>
<text text-anchor="middle" x="374" y="-8.3" font-family="Times,serif" font-size="14.00">p: &#45;1</text>
</g>
<!-- label0&#45;&gt;label1 -->
<g id="edge1" class="edge">
<title>label0&#45;&gt;label1</title>
<path fill="none" stroke="#dce6e3" stroke-dasharray="5,2" d="M187.21,-16.8C199.03,-16.71 211.08,-16.74 222.77,-16.87"/>
</g>
<!-- label1&#45;&gt;label0 -->
<g id="edge3" class="edge">
<title>label1&#45;&gt;label0</title>
<path fill="none" stroke="#038c61" d="M222.77,-30.13C214.37,-30.22 205.78,-30.26 197.22,-30.25"/>
<polygon fill="#038c61" stroke="#038c61" points="197.23,-26.75 187.21,-30.2 197.2,-33.75 197.23,-26.75"/>
</g>
</g>
</svg>
