<?xml version="1.0" encoding="UTF-8" standalone="no"?>
<!DOCTYPE svg PUBLIC "-//W3C//DTD SVG 1.1//EN"
 "http://www.w3.org/Graphics/SVG/1.1/DTD/svg11.dtd">
<!-- Generated by graphviz version 6.0.2 (20221011.1828)
 -->
<!-- Title: structs Pages: 1 -->
<svg width="1596pt" height="122pt"
 viewBox="0.00 0.00 1596.00 121.50" xmlns="http://www.w3.org/2000/svg" xmlns:xlink="http://www.w3.org/1999/xlink">
<g id="graph0" class="graph" transform="scale(1 1) rotate(0) translate(4 117.5)">
<title>structs</title>
<polygon fill="white" stroke="none" points="-4,4 -4,-117.5 1592,-117.5 1592,4 -4,4"/>
<!-- label0 -->
<g id="node1" class="node">
<title>label0</title>
<path fill="#f593a8" stroke="black" d="M12,-41C12,-41 175,-41 175,-41 181,-41 187,-47 187,-53 187,-53 187,-75 187,-75 187,-81 181,-87 175,-87 175,-87 12,-87 12,-87 6,-87 0,-81 0,-75 0,-75 0,-53 0,-53 0,-47 6,-41 12,-41"/>
<text text-anchor="middle" x="37.5" y="-71.8" font-family="Times,serif" font-size="14.00">phys: 0</text>
<polyline fill="none" stroke="black" points="0,-64 75,-64"/>
<text text-anchor="middle" x="37.5" y="-48.8" font-family="Times,serif" font-size="14.00">log: 48879</text>
<polyline fill="none" stroke="black" points="75,-41 75,-87"/>
<text text-anchor="middle" x="112" y="-60.3" font-family="Times,serif" font-size="14.00">val: 48879</text>
<polyline fill="none" stroke="black" points="149,-41 149,-87"/>
<text text-anchor="middle" x="168" y="-71.8" font-family="Times,serif" font-size="14.00">n: 1</text>
<polyline fill="none" stroke="black" points="149,-64 187,-64"/>
<text text-anchor="middle" x="168" y="-48.8" font-family="Times,serif" font-size="14.00">p: 2</text>
</g>
<!-- label1 -->
<g id="node2" class="node">
<title>label1</title>
<path fill="#72eb6c" stroke="black" d="M235,-67C235,-67 352,-67 352,-67 358,-67 364,-73 364,-79 364,-79 364,-101 364,-101 364,-107 358,-113 352,-113 352,-113 235,-113 235,-113 229,-113 223,-107 223,-101 223,-101 223,-79 223,-79 223,-73 229,-67 235,-67"/>
<text text-anchor="middle" x="251" y="-97.8" font-family="Times,serif" font-size="14.00">phys: 1</text>
<polyline fill="none" stroke="black" points="223,-90 279,-90"/>
<text text-anchor="middle" x="251" y="-74.8" font-family="Times,serif" font-size="14.00">log: 0</text>
<polyline fill="none" stroke="black" points="279,-67 279,-113"/>
<text text-anchor="middle" x="302.5" y="-86.3" font-family="Times,serif" font-size="14.00">val: 7</text>
<polyline fill="none" stroke="black" points="326,-67 326,-113"/>
<text text-anchor="middle" x="345" y="-97.8" font-family="Times,serif" font-size="14.00">n: 2</text>
<polyline fill="none" stroke="black" points="326,-90 364,-90"/>
<text text-anchor="middle" x="345" y="-74.8" font-family="Times,serif" font-size="14.00">p: 0</text>
</g>
<!-- label0&#45;&gt;label1 -->
<g id="edge1" class="edge">
<title>label0&#45;&gt;label1</title>
<path fill="none" stroke="#dce6e3" stroke-dasharray="5,2" d="M187.12,-69.43C199.1,-70.95 211.2,-72.63 222.72,-74.36"/>
</g>
<!-- label0&#45;&gt;label1 -->
<g id="edge8" class="edge">
<title>label0&#45;&gt;label1</title>
<path fill="none" stroke="red" d="M187.12,-82.9C195.64,-84.05 204.22,-85.14 212.6,-86.15"/>
<polygon fill="red" stroke="red" points="212.39,-89.64 222.72,-87.32 213.19,-82.69 212.39,-89.64"/>
</g>
<!-- label2 -->
<g id="node3" class="node">
<title>label2</title>
<path fill="#72eb6c" stroke="black" d="M412,-57C412,-57 536,-57 536,-57 542,-57 548,-63 548,-69 548,-69 548,-91 548,-91 548,-97 542,-103 536,-103 536,-103 412,-103 412,-103 406,-103 400,-97 400,-91 400,-91 400,-69 400,-69 400,-63 406,-57 412,-57"/>
<text text-anchor="middle" x="428" y="-87.8" font-family="Times,serif" font-size="14.00">phys: 2</text>
<polyline fill="none" stroke="black" points="400,-80 456,-80"/>
<text text-anchor="middle" x="428" y="-64.8" font-family="Times,serif" font-size="14.00">log: 1</text>
<polyline fill="none" stroke="black" points="456,-57 456,-103"/>
<text text-anchor="middle" x="483" y="-76.3" font-family="Times,serif" font-size="14.00">val: 12</text>
<polyline fill="none" stroke="black" points="510,-57 510,-103"/>
<text text-anchor="middle" x="529" y="-87.8" font-family="Times,serif" font-size="14.00">n: 0</text>
<polyline fill="none" stroke="black" points="510,-80 548,-80"/>
<text text-anchor="middle" x="529" y="-64.8" font-family="Times,serif" font-size="14.00">p: 1</text>
</g>
<!-- label1&#45;&gt;label2 -->
<g id="edge2" class="edge">
<title>label1&#45;&gt;label2</title>
<path fill="none" stroke="#dce6e3" stroke-dasharray="5,2" d="M364.02,-79.5C375.77,-78.67 388,-77.96 399.83,-77.45"/>
</g>
<!-- label1&#45;&gt;label2 -->
<g id="edge9" class="edge">
<title>label1&#45;&gt;label2</title>
<path fill="none" stroke="red" d="M364.02,-92.71C372.47,-92.36 381.16,-91.92 389.77,-91.4"/>
<polygon fill="red" stroke="red" points="390.08,-94.89 399.83,-90.75 389.63,-87.9 390.08,-94.89"/>
</g>
<!-- label2&#45;&gt;label0 -->
<g id="edge10" class="edge">
<title>label2&#45;&gt;label0</title>
<path fill="none" stroke="red" d="M399.72,-63.14C387.84,-61 375.62,-59.16 364,-58 309.11,-52.52 247.62,-53.35 197.26,-55.86"/>
<polygon fill="red" stroke="red" points="196.82,-52.37 187.02,-56.39 197.19,-59.36 196.82,-52.37"/>
</g>
<!-- label3 -->
<g id="node4" class="node">
<title>label3</title>
<path fill="#0ba172" stroke="black" d="M596,-48C596,-48 744,-48 744,-48 750,-48 756,-54 756,-60 756,-60 756,-82 756,-82 756,-88 750,-94 744,-94 744,-94 596,-94 596,-94 590,-94 584,-88 584,-82 584,-82 584,-60 584,-60 584,-54 590,-48 596,-48"/>
<text text-anchor="middle" x="612" y="-78.8" font-family="Times,serif" font-size="14.00">phys: 3</text>
<polyline fill="none" stroke="black" points="584,-71 640,-71"/>
<text text-anchor="middle" x="612" y="-55.8" font-family="Times,serif" font-size="14.00">log: 0</text>
<polyline fill="none" stroke="black" points="640,-48 640,-94"/>
<text text-anchor="middle" x="677" y="-67.3" font-family="Times,serif" font-size="14.00">val: 48879</text>
<polyline fill="none" stroke="black" points="714,-48 714,-94"/>
<text text-anchor="middle" x="735" y="-78.8" font-family="Times,serif" font-size="14.00">n: 4</text>
<polyline fill="none" stroke="black" points="714,-71 756,-71"/>
<text text-anchor="middle" x="735" y="-55.8" font-family="Times,serif" font-size="14.00">p: &#45;1</text>
</g>
<!-- label2&#45;&gt;label3 -->
<g id="edge3" class="edge">
<title>label2&#45;&gt;label3</title>
<path fill="none" stroke="#dce6e3" stroke-dasharray="5,2" d="M548.07,-76.61C559.77,-76.07 571.98,-75.5 583.94,-74.95"/>
</g>
<!-- label4 -->
<g id="node5" class="node">
<title>label4</title>
<path fill="#0ba172" stroke="black" d="M804,-48C804,-48 952,-48 952,-48 958,-48 964,-54 964,-60 964,-60 964,-82 964,-82 964,-88 958,-94 952,-94 952,-94 804,-94 804,-94 798,-94 792,-88 792,-82 792,-82 792,-60 792,-60 792,-54 798,-48 804,-48"/>
<text text-anchor="middle" x="820" y="-78.8" font-family="Times,serif" font-size="14.00">phys: 4</text>
<polyline fill="none" stroke="black" points="792,-71 848,-71"/>
<text text-anchor="middle" x="820" y="-55.8" font-family="Times,serif" font-size="14.00">log: 1</text>
<polyline fill="none" stroke="black" points="848,-48 848,-94"/>
<text text-anchor="middle" x="885" y="-67.3" font-family="Times,serif" font-size="14.00">val: 48879</text>
<polyline fill="none" stroke="black" points="922,-48 922,-94"/>
<text text-anchor="middle" x="943" y="-78.8" font-family="Times,serif" font-size="14.00">n: 5</text>
<polyline fill="none" stroke="black" points="922,-71 964,-71"/>
<text text-anchor="middle" x="943" y="-55.8" font-family="Times,serif" font-size="14.00">p: &#45;1</text>
</g>
<!-- label3&#45;&gt;label4 -->
<g id="edge4" class="edge">
<title>label3&#45;&gt;label4</title>
<path fill="none" stroke="#dce6e3" stroke-dasharray="5,2" d="M756.28,-64.34C768.01,-64.22 780.06,-64.22 791.79,-64.34"/>
</g>
<!-- label3&#45;&gt;label4 -->
<g id="edge11" class="edge">
<title>label3&#45;&gt;label4</title>
<path fill="none" stroke="#038c61" d="M756.28,-77.66C764.62,-77.75 773.12,-77.77 781.55,-77.73"/>
<polygon fill="#038c61" stroke="#038c61" points="781.81,-81.23 791.79,-77.66 781.76,-74.23 781.81,-81.23"/>
</g>
<!-- label5 -->
<g id="node6" class="node">
<title>label5</title>
<path fill="#0ba172" stroke="black" d="M1012,-48C1012,-48 1160,-48 1160,-48 1166,-48 1172,-54 1172,-60 1172,-60 1172,-82 1172,-82 1172,-88 1166,-94 1160,-94 1160,-94 1012,-94 1012,-94 1006,-94 1000,-88 1000,-82 1000,-82 1000,-60 1000,-60 1000,-54 1006,-48 1012,-48"/>
<text text-anchor="middle" x="1028" y="-78.8" font-family="Times,serif" font-size="14.00">phys: 5</text>
<polyline fill="none" stroke="black" points="1000,-71 1056,-71"/>
<text text-anchor="middle" x="1028" y="-55.8" font-family="Times,serif" font-size="14.00">log: 2</text>
<polyline fill="none" stroke="black" points="1056,-48 1056,-94"/>
<text text-anchor="middle" x="1093" y="-67.3" font-family="Times,serif" font-size="14.00">val: 48879</text>
<polyline fill="none" stroke="black" points="1130,-48 1130,-94"/>
<text text-anchor="middle" x="1151" y="-78.8" font-family="Times,serif" font-size="14.00">n: 6</text>
<polyline fill="none" stroke="black" points="1130,-71 1172,-71"/>
<text text-anchor="middle" x="1151" y="-55.8" font-family="Times,serif" font-size="14.00">p: &#45;1</text>
</g>
<!-- label4&#45;&gt;label5 -->
<g id="edge5" class="edge">
<title>label4&#45;&gt;label5</title>
<path fill="none" stroke="#dce6e3" stroke-dasharray="5,2" d="M964.28,-64.34C976.01,-64.22 988.06,-64.22 999.79,-64.34"/>
</g>
<!-- label4&#45;&gt;label5 -->
<g id="edge12" class="edge">
<title>label4&#45;&gt;label5</title>
<path fill="none" stroke="#038c61" d="M964.28,-77.66C972.62,-77.75 981.12,-77.77 989.55,-77.73"/>
<polygon fill="#038c61" stroke="#038c61" points="989.81,-81.23 999.79,-77.66 989.76,-74.23 989.81,-81.23"/>
</g>
<!-- label6 -->
<g id="node7" class="node">
<title>label6</title>
<path fill="#0ba172" stroke="black" d="M1220,-48C1220,-48 1368,-48 1368,-48 1374,-48 1380,-54 1380,-60 1380,-60 1380,-82 1380,-82 1380,-88 1374,-94 1368,-94 1368,-94 1220,-94 1220,-94 1214,-94 1208,-88 1208,-82 1208,-82 1208,-60 1208,-60 1208,-54 1214,-48 1220,-48"/>
<text text-anchor="middle" x="1236" y="-78.8" font-family="Times,serif" font-size="14.00">phys: 6</text>
<polyline fill="none" stroke="black" points="1208,-71 1264,-71"/>
<text text-anchor="middle" x="1236" y="-55.8" font-family="Times,serif" font-size="14.00">log: 3</text>
<polyline fill="none" stroke="black" points="1264,-48 1264,-94"/>
<text text-anchor="middle" x="1301" y="-67.3" font-family="Times,serif" font-size="14.00">val: 48879</text>
<polyline fill="none" stroke="black" points="1338,-48 1338,-94"/>
<text text-anchor="middle" x="1359" y="-78.8" font-family="Times,serif" font-size="14.00">n: 7</text>
<polyline fill="none" stroke="black" points="1338,-71 1380,-71"/>
<text text-anchor="middle" x="1359" y="-55.8" font-family="Times,serif" font-size="14.00">p: &#45;1</text>
</g>
<!-- label5&#45;&gt;label6 -->
<g id="edge6" class="edge">
<title>label5&#45;&gt;label6</title>
<path fill="none" stroke="#dce6e3" stroke-dasharray="5,2" d="M1172.28,-64.34C1184.01,-64.22 1196.06,-64.22 1207.79,-64.34"/>
</g>
<!-- label5&#45;&gt;label6 -->
<g id="edge13" class="edge">
<title>label5&#45;&gt;label6</title>
<path fill="none" stroke="#038c61" d="M1172.28,-77.66C1180.62,-77.75 1189.12,-77.77 1197.55,-77.73"/>
<polygon fill="#038c61" stroke="#038c61" points="1197.81,-81.23 1207.79,-77.66 1197.76,-74.23 1197.81,-81.23"/>
</g>
<!-- label7 -->
<g id="node8" class="node">
<title>label7</title>
<path fill="#0ba172" stroke="black" d="M1428,-48C1428,-48 1576,-48 1576,-48 1582,-48 1588,-54 1588,-60 1588,-60 1588,-82 1588,-82 1588,-88 1582,-94 1576,-94 1576,-94 1428,-94 1428,-94 1422,-94 1416,-88 1416,-82 1416,-82 1416,-60 1416,-60 1416,-54 1422,-48 1428,-48"/>
<text text-anchor="middle" x="1444" y="-78.8" font-family="Times,serif" font-size="14.00">phys: 7</text>
<polyline fill="none" stroke="black" points="1416,-71 1472,-71"/>
<text text-anchor="middle" x="1444" y="-55.8" font-family="Times,serif" font-size="14.00">log: 4</text>
<polyline fill="none" stroke="black" points="1472,-48 1472,-94"/>
<text text-anchor="middle" x="1509" y="-67.3" font-family="Times,serif" font-size="14.00">val: 48879</text>
<polyline fill="none" stroke="black" points="1546,-48 1546,-94"/>
<text text-anchor="middle" x="1567" y="-78.8" font-family="Times,serif" font-size="14.00">n: 0</text>
<polyline fill="none" stroke="black" points="1546,-71 1588,-71"/>
<text text-anchor="middle" x="1567" y="-55.8" font-family="Times,serif" font-size="14.00">p: &#45;1</text>
</g>
<!-- label6&#45;&gt;label7 -->
<g id="edge7" class="edge">
<title>label6&#45;&gt;label7</title>
<path fill="none" stroke="#dce6e3" stroke-dasharray="5,2" d="M1380.28,-64.34C1392.01,-64.22 1404.06,-64.22 1415.79,-64.34"/>
</g>
<!-- label6&#45;&gt;label7 -->
<g id="edge14" class="edge">
<title>label6&#45;&gt;label7</title>
<path fill="none" stroke="#038c61" d="M1380.28,-77.66C1388.62,-77.75 1397.12,-77.77 1405.55,-77.73"/>
<polygon fill="#038c61" stroke="#038c61" points="1405.81,-81.23 1415.79,-77.66 1405.76,-74.23 1405.81,-81.23"/>
</g>
<!-- label7&#45;&gt;label0 -->
<g id="edge15" class="edge">
<title>label7&#45;&gt;label0</title>
<path fill="none" stroke="#038c61" d="M1419.64,-47.98C1406.45,-44.69 1392.9,-41.55 1380,-39 1251.13,-13.49 1218.37,0 1087,0 473,0 473,0 473,0 375.89,0 266.71,-20.73 190.66,-38.6"/>
<polygon fill="#038c61" stroke="#038c61" points="189.54,-35.27 180.62,-40.98 191.15,-42.08 189.54,-35.27"/>
</g>
</g>
</svg>
