<?xml version="1.0" encoding="UTF-8" standalone="no"?>
<!DOCTYPE svg PUBLIC "-//W3C//DTD SVG 1.1//EN"
 "http://www.w3.org/Graphics/SVG/1.1/DTD/svg11.dtd">
<!-- Generated by graphviz version 6.0.2 (20221011.1828)
 -->
<!-- Title: structs Pages: 1 -->
<svg width="788pt" height="80pt"
 viewBox="0.00 0.00 788.00 79.58" xmlns="http://www.w3.org/2000/svg" xmlns:xlink="http://www.w3.org/1999/xlink">
<g id="graph0" class="graph" transform="scale(1 1) rotate(0) translate(4 75.58)">
<title>structs</title>
<polygon fill="white" stroke="none" points="-4,4 -4,-75.58 784,-75.58 784,4 -4,4"/>
<!-- label0 -->
<g id="node1" class="node">
<title>label0</title>
<path fill="#f593a8" stroke="black" d="M12,-25.08C12,-25.08 175,-25.08 175,-25.08 181,-25.08 187,-31.08 187,-37.08 187,-37.08 187,-59.08 187,-59.08 187,-65.08 181,-71.08 175,-71.08 175,-71.08 12,-71.08 12,-71.08 6,-71.08 0,-65.08 0,-59.08 0,-59.08 0,-37.08 0,-37.08 0,-31.08 6,-25.08 12,-25.08"/>
<text text-anchor="middle" x="37.5" y="-55.88" font-family="Times,serif" font-size="14.00">phys: 0</text>
<polyline fill="none" stroke="black" points="0,-48.08 75,-48.08"/>
<text text-anchor="middle" x="37.5" y="-32.88" font-family="Times,serif" font-size="14.00">log: 48879</text>
<polyline fill="none" stroke="black" points="75,-25.08 75,-71.08"/>
<text text-anchor="middle" x="112" y="-44.38" font-family="Times,serif" font-size="14.00">val: 48879</text>
<polyline fill="none" stroke="black" points="149,-25.08 149,-71.08"/>
<text text-anchor="middle" x="168" y="-55.88" font-family="Times,serif" font-size="14.00">n: 1</text>
<polyline fill="none" stroke="black" points="149,-48.08 187,-48.08"/>
<text text-anchor="middle" x="168" y="-32.88" font-family="Times,serif" font-size="14.00">p: 1</text>
</g>
<!-- label1 -->
<g id="node2" class="node">
<title>label1</title>
<path fill="#72eb6c" stroke="black" d="M235,-25.08C235,-25.08 352,-25.08 352,-25.08 358,-25.08 364,-31.08 364,-37.08 364,-37.08 364,-59.08 364,-59.08 364,-65.08 358,-71.08 352,-71.08 352,-71.08 235,-71.08 235,-71.08 229,-71.08 223,-65.08 223,-59.08 223,-59.08 223,-37.08 223,-37.08 223,-31.08 229,-25.08 235,-25.08"/>
<text text-anchor="middle" x="251" y="-55.88" font-family="Times,serif" font-size="14.00">phys: 1</text>
<polyline fill="none" stroke="black" points="223,-48.08 279,-48.08"/>
<text text-anchor="middle" x="251" y="-32.88" font-family="Times,serif" font-size="14.00">log: 0</text>
<polyline fill="none" stroke="black" points="279,-25.08 279,-71.08"/>
<text text-anchor="middle" x="302.5" y="-44.38" font-family="Times,serif" font-size="14.00">val: 7</text>
<polyline fill="none" stroke="black" points="326,-25.08 326,-71.08"/>
<text text-anchor="middle" x="345" y="-55.88" font-family="Times,serif" font-size="14.00">n: 0</text>
<polyline fill="none" stroke="black" points="326,-48.08 364,-48.08"/>
<text text-anchor="middle" x="345" y="-32.88" font-family="Times,serif" font-size="14.00">p: 0</text>
</g>
<!-- label0&#45;&gt;label1 -->
<g id="edge1" class="edge">
<title>label0&#45;&gt;label1</title>
<path fill="none" stroke="#dce6e3" stroke-dasharray="5,2" d="M187.12,-34.61C199.1,-34.51 211.2,-34.69 222.72,-35.12"/>
</g>
<!-- label0&#45;&gt;label1 -->
<g id="edge4" class="edge">
<title>label0&#45;&gt;label1</title>
<path fill="none" stroke="red" d="M187.12,-48.08C195.64,-48.08 204.22,-48.08 212.6,-48.08"/>
<polygon fill="red" stroke="red" points="212.72,-51.58 222.72,-48.08 212.72,-44.58 212.72,-51.58"/>
</g>
<!-- label1&#45;&gt;label0 -->
<g id="edge5" class="edge">
<title>label1&#45;&gt;label0</title>
<path fill="none" stroke="red" d="M222.72,-61.05C214.44,-61.36 205.86,-61.54 197.24,-61.58"/>
<polygon fill="red" stroke="red" points="197.13,-58.08 187.12,-61.56 197.12,-65.08 197.13,-58.08"/>
</g>
<!-- label2 -->
<g id="node3" class="node">
<title>label2</title>
<path fill="#0ba172" stroke="black" d="M412,-25.08C412,-25.08 560,-25.08 560,-25.08 566,-25.08 572,-31.08 572,-37.08 572,-37.08 572,-59.08 572,-59.08 572,-65.08 566,-71.08 560,-71.08 560,-71.08 412,-71.08 412,-71.08 406,-71.08 400,-65.08 400,-59.08 400,-59.08 400,-37.08 400,-37.08 400,-31.08 406,-25.08 412,-25.08"/>
<text text-anchor="middle" x="428" y="-55.88" font-family="Times,serif" font-size="14.00">phys: 2</text>
<polyline fill="none" stroke="black" points="400,-48.08 456,-48.08"/>
<text text-anchor="middle" x="428" y="-32.88" font-family="Times,serif" font-size="14.00">log: 0</text>
<polyline fill="none" stroke="black" points="456,-25.08 456,-71.08"/>
<text text-anchor="middle" x="493" y="-44.38" font-family="Times,serif" font-size="14.00">val: 48879</text>
<polyline fill="none" stroke="black" points="530,-25.08 530,-71.08"/>
<text text-anchor="middle" x="551" y="-55.88" font-family="Times,serif" font-size="14.00">n: 3</text>
<polyline fill="none" stroke="black" points="530,-48.08 572,-48.08"/>
<text text-anchor="middle" x="551" y="-32.88" font-family="Times,serif" font-size="14.00">p: &#45;1</text>
</g>
<!-- label1&#45;&gt;label2 -->
<g id="edge2" class="edge">
<title>label1&#45;&gt;label2</title>
<path fill="none" stroke="#dce6e3" stroke-dasharray="5,2" d="M364.08,-48.08C375.67,-48.08 387.8,-48.08 399.72,-48.08"/>
</g>
<!-- label3 -->
<g id="node4" class="node">
<title>label3</title>
<path fill="#0ba172" stroke="black" d="M620,-25.08C620,-25.08 768,-25.08 768,-25.08 774,-25.08 780,-31.08 780,-37.08 780,-37.08 780,-59.08 780,-59.08 780,-65.08 774,-71.08 768,-71.08 768,-71.08 620,-71.08 620,-71.08 614,-71.08 608,-65.08 608,-59.08 608,-59.08 608,-37.08 608,-37.08 608,-31.08 614,-25.08 620,-25.08"/>
<text text-anchor="middle" x="636" y="-55.88" font-family="Times,serif" font-size="14.00">phys: 3</text>
<polyline fill="none" stroke="black" points="608,-48.08 664,-48.08"/>
<text text-anchor="middle" x="636" y="-32.88" font-family="Times,serif" font-size="14.00">log: 1</text>
<polyline fill="none" stroke="black" points="664,-25.08 664,-71.08"/>
<text text-anchor="middle" x="701" y="-44.38" font-family="Times,serif" font-size="14.00">val: 48879</text>
<polyline fill="none" stroke="black" points="738,-25.08 738,-71.08"/>
<text text-anchor="middle" x="759" y="-55.88" font-family="Times,serif" font-size="14.00">n: 0</text>
<polyline fill="none" stroke="black" points="738,-48.08 780,-48.08"/>
<text text-anchor="middle" x="759" y="-32.88" font-family="Times,serif" font-size="14.00">p: &#45;1</text>
</g>
<!-- label2&#45;&gt;label3 -->
<g id="edge3" class="edge">
<title>label2&#45;&gt;label3</title>
<path fill="none" stroke="#dce6e3" stroke-dasharray="5,2" d="M572.28,-41.42C584.01,-41.3 596.06,-41.3 607.79,-41.42"/>
</g>
<!-- label2&#45;&gt;label3 -->
<g id="edge6" class="edge">
<title>label2&#45;&gt;label3</title>
<path fill="none" stroke="#038c61" d="M572.28,-54.74C580.62,-54.83 589.12,-54.85 597.55,-54.82"/>
<polygon fill="#038c61" stroke="#038c61" points="597.81,-58.32 607.79,-54.74 597.76,-51.32 597.81,-58.32"/>
</g>
<!-- label3&#45;&gt;label0 -->
<g id="edge7" class="edge">
<title>label3&#45;&gt;label0</title>
<path fill="none" stroke="#038c61" d="M620.7,-25C604.82,-20.88 587.97,-17.22 572,-15.08 418.26,5.5 376.89,4.36 223,-15.08 209.39,-16.8 195.16,-19.51 181.34,-22.65"/>
<polygon fill="#038c61" stroke="#038c61" points="180.28,-19.3 171.36,-25 181.89,-26.11 180.28,-19.3"/>
</g>
</g>
</svg>
