<?xml version="1.0" encoding="UTF-8" standalone="no"?>
<!DOCTYPE svg PUBLIC "-//W3C//DTD SVG 1.1//EN"
 "http://www.w3.org/Graphics/SVG/1.1/DTD/svg11.dtd">
<!-- Generated by graphviz version 6.0.2 (20221011.1828)
 -->
<!-- Title: structs Pages: 1 -->
<svg width="757pt" height="119pt"
 viewBox="0.00 0.00 757.00 119.00" xmlns="http://www.w3.org/2000/svg" xmlns:xlink="http://www.w3.org/1999/xlink">
<g id="graph0" class="graph" transform="scale(1 1) rotate(0) translate(4 115)">
<title>structs</title>
<polygon fill="white" stroke="none" points="-4,4 -4,-115 753,-115 753,4 -4,4"/>
<!-- label0 -->
<g id="node1" class="node">
<title>label0</title>
<path fill="#f593a8" stroke="black" d="M12,-38.5C12,-38.5 175,-38.5 175,-38.5 181,-38.5 187,-44.5 187,-50.5 187,-50.5 187,-72.5 187,-72.5 187,-78.5 181,-84.5 175,-84.5 175,-84.5 12,-84.5 12,-84.5 6,-84.5 0,-78.5 0,-72.5 0,-72.5 0,-50.5 0,-50.5 0,-44.5 6,-38.5 12,-38.5"/>
<text text-anchor="middle" x="37.5" y="-69.3" font-family="Times,serif" font-size="14.00">phys: 0</text>
<polyline fill="none" stroke="black" points="0,-61.5 75,-61.5"/>
<text text-anchor="middle" x="37.5" y="-46.3" font-family="Times,serif" font-size="14.00">log: 48879</text>
<polyline fill="none" stroke="black" points="75,-38.5 75,-84.5"/>
<text text-anchor="middle" x="112" y="-57.8" font-family="Times,serif" font-size="14.00">val: 48879</text>
<polyline fill="none" stroke="black" points="149,-38.5 149,-84.5"/>
<text text-anchor="middle" x="168" y="-69.3" font-family="Times,serif" font-size="14.00">n: 1</text>
<polyline fill="none" stroke="black" points="149,-61.5 187,-61.5"/>
<text text-anchor="middle" x="168" y="-46.3" font-family="Times,serif" font-size="14.00">p: 2</text>
</g>
<!-- label1 -->
<g id="node2" class="node">
<title>label1</title>
<path fill="#72eb6c" stroke="black" d="M235,-64.5C235,-64.5 352,-64.5 352,-64.5 358,-64.5 364,-70.5 364,-76.5 364,-76.5 364,-98.5 364,-98.5 364,-104.5 358,-110.5 352,-110.5 352,-110.5 235,-110.5 235,-110.5 229,-110.5 223,-104.5 223,-98.5 223,-98.5 223,-76.5 223,-76.5 223,-70.5 229,-64.5 235,-64.5"/>
<text text-anchor="middle" x="251" y="-95.3" font-family="Times,serif" font-size="14.00">phys: 1</text>
<polyline fill="none" stroke="black" points="223,-87.5 279,-87.5"/>
<text text-anchor="middle" x="251" y="-72.3" font-family="Times,serif" font-size="14.00">log: 0</text>
<polyline fill="none" stroke="black" points="279,-64.5 279,-110.5"/>
<text text-anchor="middle" x="302.5" y="-83.8" font-family="Times,serif" font-size="14.00">val: 7</text>
<polyline fill="none" stroke="black" points="326,-64.5 326,-110.5"/>
<text text-anchor="middle" x="345" y="-95.3" font-family="Times,serif" font-size="14.00">n: 2</text>
<polyline fill="none" stroke="black" points="326,-87.5 364,-87.5"/>
<text text-anchor="middle" x="345" y="-72.3" font-family="Times,serif" font-size="14.00">p: 0</text>
</g>
<!-- label0&#45;&gt;label1 -->
<g id="edge1" class="edge">
<title>label0&#45;&gt;label1</title>
<path fill="none" stroke="#dce6e3" stroke-dasharray="5,2" d="M187.12,-66.93C199.1,-68.45 211.2,-70.13 222.72,-71.86"/>
</g>
<!-- label0&#45;&gt;label1 -->
<g id="edge4" class="edge">
<title>label0&#45;&gt;label1</title>
<path fill="none" stroke="red" d="M187.12,-80.4C195.64,-81.55 204.22,-82.64 212.6,-83.65"/>
<polygon fill="red" stroke="red" points="212.39,-87.14 222.72,-84.82 213.19,-80.19 212.39,-87.14"/>
</g>
<!-- label2 -->
<g id="node3" class="node">
<title>label2</title>
<path fill="#72eb6c" stroke="black" d="M412,-45.5C412,-45.5 529,-45.5 529,-45.5 535,-45.5 541,-51.5 541,-57.5 541,-57.5 541,-79.5 541,-79.5 541,-85.5 535,-91.5 529,-91.5 529,-91.5 412,-91.5 412,-91.5 406,-91.5 400,-85.5 400,-79.5 400,-79.5 400,-57.5 400,-57.5 400,-51.5 406,-45.5 412,-45.5"/>
<text text-anchor="middle" x="428" y="-76.3" font-family="Times,serif" font-size="14.00">phys: 2</text>
<polyline fill="none" stroke="black" points="400,-68.5 456,-68.5"/>
<text text-anchor="middle" x="428" y="-53.3" font-family="Times,serif" font-size="14.00">log: 1</text>
<polyline fill="none" stroke="black" points="456,-45.5 456,-91.5"/>
<text text-anchor="middle" x="479.5" y="-64.8" font-family="Times,serif" font-size="14.00">val: 9</text>
<polyline fill="none" stroke="black" points="503,-45.5 503,-91.5"/>
<text text-anchor="middle" x="522" y="-76.3" font-family="Times,serif" font-size="14.00">n: 0</text>
<polyline fill="none" stroke="black" points="503,-68.5 541,-68.5"/>
<text text-anchor="middle" x="522" y="-53.3" font-family="Times,serif" font-size="14.00">p: 1</text>
</g>
<!-- label1&#45;&gt;label2 -->
<g id="edge2" class="edge">
<title>label1&#45;&gt;label2</title>
<path fill="none" stroke="#dce6e3" stroke-dasharray="5,2" d="M364.17,-73.31C375.89,-71.87 388.06,-70.55 399.79,-69.44"/>
</g>
<!-- label1&#45;&gt;label2 -->
<g id="edge5" class="edge">
<title>label1&#45;&gt;label2</title>
<path fill="none" stroke="red" d="M364.17,-86.56C372.59,-85.77 381.25,-84.86 389.81,-83.88"/>
<polygon fill="red" stroke="red" points="390.27,-87.35 399.79,-82.69 389.44,-80.4 390.27,-87.35"/>
</g>
<!-- label2&#45;&gt;label0 -->
<g id="edge6" class="edge">
<title>label2&#45;&gt;label0</title>
<path fill="none" stroke="red" d="M399.81,-58.69C387.89,-57.36 375.6,-56.21 364,-55.5 309.05,-52.13 247.69,-53.12 197.41,-55.18"/>
<polygon fill="red" stroke="red" points="197.03,-51.69 187.19,-55.62 197.33,-58.69 197.03,-51.69"/>
</g>
<!-- label3 -->
<g id="node4" class="node">
<title>label3</title>
<path fill="#0ba172" stroke="black" d="M589,-0.5C589,-0.5 737,-0.5 737,-0.5 743,-0.5 749,-6.5 749,-12.5 749,-12.5 749,-34.5 749,-34.5 749,-40.5 743,-46.5 737,-46.5 737,-46.5 589,-46.5 589,-46.5 583,-46.5 577,-40.5 577,-34.5 577,-34.5 577,-12.5 577,-12.5 577,-6.5 583,-0.5 589,-0.5"/>
<text text-anchor="middle" x="605" y="-31.3" font-family="Times,serif" font-size="14.00">phys: 3</text>
<polyline fill="none" stroke="black" points="577,-23.5 633,-23.5"/>
<text text-anchor="middle" x="605" y="-8.3" font-family="Times,serif" font-size="14.00">log: 0</text>
<polyline fill="none" stroke="black" points="633,-0.5 633,-46.5"/>
<text text-anchor="middle" x="670" y="-19.8" font-family="Times,serif" font-size="14.00">val: 48879</text>
<polyline fill="none" stroke="black" points="707,-0.5 707,-46.5"/>
<text text-anchor="middle" x="728" y="-31.3" font-family="Times,serif" font-size="14.00">n: 0</text>
<polyline fill="none" stroke="black" points="707,-23.5 749,-23.5"/>
<text text-anchor="middle" x="728" y="-8.3" font-family="Times,serif" font-size="14.00">p: &#45;1</text>
</g>
<!-- label2&#45;&gt;label3 -->
<g id="edge3" class="edge">
<title>label2&#45;&gt;label3</title>
<path fill="none" stroke="#dce6e3" stroke-dasharray="5,2" d="M541.08,-52.06C552.67,-49.33 564.8,-46.46 576.72,-43.64"/>
</g>
<!-- label3&#45;&gt;label0 -->
<g id="edge7" class="edge">
<title>label3&#45;&gt;label0</title>
<path fill="none" stroke="#038c61" d="M576.92,-26.96C488.41,-30.89 345.85,-38.12 223,-48.5 214.65,-49.21 206,-49.98 197.31,-50.79"/>
<polygon fill="#038c61" stroke="#038c61" points="196.74,-47.33 187.11,-51.76 197.4,-54.3 196.74,-47.33"/>
</g>
</g>
</svg>
