<?xml version="1.0" encoding="UTF-8" standalone="no"?>
<!DOCTYPE svg PUBLIC "-//W3C//DTD SVG 1.1//EN"
 "http://www.w3.org/Graphics/SVG/1.1/DTD/svg11.dtd">
<!-- Generated by graphviz version 6.0.2 (20221011.1828)
 -->
<!-- Title: structs Pages: 1 -->
<svg width="1558pt" height="122pt"
 viewBox="0.00 0.00 1558.00 121.50" xmlns="http://www.w3.org/2000/svg" xmlns:xlink="http://www.w3.org/1999/xlink">
<g id="graph0" class="graph" transform="scale(1 1) rotate(0) translate(4 117.5)">
<title>structs</title>
<polygon fill="white" stroke="none" points="-4,4 -4,-117.5 1554,-117.5 1554,4 -4,4"/>
<!-- label0 -->
<g id="node1" class="node">
<title>label0</title>
<path fill="#f593a8" stroke="black" d="M12,-41C12,-41 175,-41 175,-41 181,-41 187,-47 187,-53 187,-53 187,-75 187,-75 187,-81 181,-87 175,-87 175,-87 12,-87 12,-87 6,-87 0,-81 0,-75 0,-75 0,-53 0,-53 0,-47 6,-41 12,-41"/>
<text text-anchor="middle" x="37.5" y="-71.8" font-family="Times,serif" font-size="14.00">phys: 0</text>
<polyline fill="none" stroke="black" points="0,-64 75,-64"/>
<text text-anchor="middle" x="37.5" y="-48.8" font-family="Times,serif" font-size="14.00">log: 48879</text>
<polyline fill="none" stroke="black" points="75,-41 75,-87"/>
<text text-anchor="middle" x="112" y="-60.3" font-family="Times,serif" font-size="14.00">val: 48879</text>
<polyline fill="none" stroke="black" points="149,-41 149,-87"/>
<text text-anchor="middle" x="168" y="-71.8" font-family="Times,serif" font-size="14.00">n: 1</text>
<polyline fill="none" stroke="black" points="149,-64 187,-64"/>
<text text-anchor="middle" x="168" y="-48.8" font-family="Times,serif" font-size="14.00">p: 3</text>
</g>
<!-- label1 -->
<g id="node2" class="node">
<title>label1</title>
<path fill="#72eb6c" stroke="black" d="M235,-67C235,-67 352,-67 352,-67 358,-67 364,-73 364,-79 364,-79 364,-101 364,-101 364,-107 358,-113 352,-113 352,-113 235,-113 235,-113 229,-113 223,-107 223,-101 223,-101 223,-79 223,-79 223,-73 229,-67 235,-67"/>
<text text-anchor="middle" x="251" y="-97.8" font-family="Times,serif" font-size="14.00">phys: 1</text>
<polyline fill="none" stroke="black" points="223,-90 279,-90"/>
<text text-anchor="middle" x="251" y="-74.8" font-family="Times,serif" font-size="14.00">log: 0</text>
<polyline fill="none" stroke="black" points="279,-67 279,-113"/>
<text text-anchor="middle" x="302.5" y="-86.3" font-family="Times,serif" font-size="14.00">val: 7</text>
<polyline fill="none" stroke="black" points="326,-67 326,-113"/>
<text text-anchor="middle" x="345" y="-97.8" font-family="Times,serif" font-size="14.00">n: 2</text>
<polyline fill="none" stroke="black" points="326,-90 364,-90"/>
<text text-anchor="middle" x="345" y="-74.8" font-family="Times,serif" font-size="14.00">p: 0</text>
</g>
<!-- label0&#45;&gt;label1 -->
<g id="edge1" class="edge">
<title>label0&#45;&gt;label1</title>
<path fill="none" stroke="#dce6e3" stroke-dasharray="5,2" d="M187.12,-69.43C199.1,-70.95 211.2,-72.63 222.72,-74.36"/>
</g>
<!-- label0&#45;&gt;label1 -->
<g id="edge8" class="edge">
<title>label0&#45;&gt;label1</title>
<path fill="none" stroke="red" d="M187.12,-82.9C195.64,-84.05 204.22,-85.14 212.6,-86.15"/>
<polygon fill="red" stroke="red" points="212.39,-89.64 222.72,-87.32 213.19,-82.69 212.39,-89.64"/>
</g>
<!-- label2 -->
<g id="node3" class="node">
<title>label2</title>
<path fill="#72eb6c" stroke="black" d="M412,-67C412,-67 529,-67 529,-67 535,-67 541,-73 541,-79 541,-79 541,-101 541,-101 541,-107 535,-113 529,-113 529,-113 412,-113 412,-113 406,-113 400,-107 400,-101 400,-101 400,-79 400,-79 400,-73 406,-67 412,-67"/>
<text text-anchor="middle" x="428" y="-97.8" font-family="Times,serif" font-size="14.00">phys: 2</text>
<polyline fill="none" stroke="black" points="400,-90 456,-90"/>
<text text-anchor="middle" x="428" y="-74.8" font-family="Times,serif" font-size="14.00">log: 1</text>
<polyline fill="none" stroke="black" points="456,-67 456,-113"/>
<text text-anchor="middle" x="479.5" y="-86.3" font-family="Times,serif" font-size="14.00">val: 9</text>
<polyline fill="none" stroke="black" points="503,-67 503,-113"/>
<text text-anchor="middle" x="522" y="-97.8" font-family="Times,serif" font-size="14.00">n: 3</text>
<polyline fill="none" stroke="black" points="503,-90 541,-90"/>
<text text-anchor="middle" x="522" y="-74.8" font-family="Times,serif" font-size="14.00">p: 1</text>
</g>
<!-- label1&#45;&gt;label2 -->
<g id="edge2" class="edge">
<title>label1&#45;&gt;label2</title>
<path fill="none" stroke="#dce6e3" stroke-dasharray="5,2" d="M364.17,-83.38C375.89,-83.21 388.06,-83.21 399.79,-83.38"/>
</g>
<!-- label1&#45;&gt;label2 -->
<g id="edge9" class="edge">
<title>label1&#45;&gt;label2</title>
<path fill="none" stroke="red" d="M364.17,-96.62C372.5,-96.74 381.06,-96.78 389.53,-96.73"/>
<polygon fill="red" stroke="red" points="389.82,-100.23 399.79,-96.62 389.75,-93.23 389.82,-100.23"/>
</g>
<!-- label3 -->
<g id="node4" class="node">
<title>label3</title>
<path fill="#72eb6c" stroke="black" d="M589,-57C589,-57 706,-57 706,-57 712,-57 718,-63 718,-69 718,-69 718,-91 718,-91 718,-97 712,-103 706,-103 706,-103 589,-103 589,-103 583,-103 577,-97 577,-91 577,-91 577,-69 577,-69 577,-63 583,-57 589,-57"/>
<text text-anchor="middle" x="605" y="-87.8" font-family="Times,serif" font-size="14.00">phys: 3</text>
<polyline fill="none" stroke="black" points="577,-80 633,-80"/>
<text text-anchor="middle" x="605" y="-64.8" font-family="Times,serif" font-size="14.00">log: 2</text>
<polyline fill="none" stroke="black" points="633,-57 633,-103"/>
<text text-anchor="middle" x="656.5" y="-76.3" font-family="Times,serif" font-size="14.00">val: 1</text>
<polyline fill="none" stroke="black" points="680,-57 680,-103"/>
<text text-anchor="middle" x="699" y="-87.8" font-family="Times,serif" font-size="14.00">n: 0</text>
<polyline fill="none" stroke="black" points="680,-80 718,-80"/>
<text text-anchor="middle" x="699" y="-64.8" font-family="Times,serif" font-size="14.00">p: 2</text>
</g>
<!-- label2&#45;&gt;label3 -->
<g id="edge3" class="edge">
<title>label2&#45;&gt;label3</title>
<path fill="none" stroke="#dce6e3" stroke-dasharray="5,2" d="M541.17,-79.4C552.89,-78.56 565.06,-77.86 576.79,-77.36"/>
</g>
<!-- label2&#45;&gt;label3 -->
<g id="edge10" class="edge">
<title>label2&#45;&gt;label3</title>
<path fill="none" stroke="red" d="M541.17,-92.64C549.59,-92.28 558.25,-91.82 566.81,-91.28"/>
<polygon fill="red" stroke="red" points="567.04,-94.77 576.79,-90.61 566.57,-87.79 567.04,-94.77"/>
</g>
<!-- label3&#45;&gt;label0 -->
<g id="edge11" class="edge">
<title>label3&#45;&gt;label0</title>
<path fill="none" stroke="red" d="M576.73,-63.35C564.87,-61.13 552.63,-59.2 541,-58 423.56,-45.89 287.84,-50.31 197.14,-55.88"/>
<polygon fill="red" stroke="red" points="196.89,-52.39 187.13,-56.51 197.34,-59.37 196.89,-52.39"/>
</g>
<!-- label4 -->
<g id="node5" class="node">
<title>label4</title>
<path fill="#0ba172" stroke="black" d="M766,-48C766,-48 914,-48 914,-48 920,-48 926,-54 926,-60 926,-60 926,-82 926,-82 926,-88 920,-94 914,-94 914,-94 766,-94 766,-94 760,-94 754,-88 754,-82 754,-82 754,-60 754,-60 754,-54 760,-48 766,-48"/>
<text text-anchor="middle" x="782" y="-78.8" font-family="Times,serif" font-size="14.00">phys: 4</text>
<polyline fill="none" stroke="black" points="754,-71 810,-71"/>
<text text-anchor="middle" x="782" y="-55.8" font-family="Times,serif" font-size="14.00">log: 0</text>
<polyline fill="none" stroke="black" points="810,-48 810,-94"/>
<text text-anchor="middle" x="847" y="-67.3" font-family="Times,serif" font-size="14.00">val: 48879</text>
<polyline fill="none" stroke="black" points="884,-48 884,-94"/>
<text text-anchor="middle" x="905" y="-78.8" font-family="Times,serif" font-size="14.00">n: 5</text>
<polyline fill="none" stroke="black" points="884,-71 926,-71"/>
<text text-anchor="middle" x="905" y="-55.8" font-family="Times,serif" font-size="14.00">p: &#45;1</text>
</g>
<!-- label3&#45;&gt;label4 -->
<g id="edge4" class="edge">
<title>label3&#45;&gt;label4</title>
<path fill="none" stroke="#dce6e3" stroke-dasharray="5,2" d="M718.08,-76.71C729.67,-76.17 741.8,-75.59 753.72,-75.03"/>
</g>
<!-- label5 -->
<g id="node6" class="node">
<title>label5</title>
<path fill="#0ba172" stroke="black" d="M974,-48C974,-48 1122,-48 1122,-48 1128,-48 1134,-54 1134,-60 1134,-60 1134,-82 1134,-82 1134,-88 1128,-94 1122,-94 1122,-94 974,-94 974,-94 968,-94 962,-88 962,-82 962,-82 962,-60 962,-60 962,-54 968,-48 974,-48"/>
<text text-anchor="middle" x="990" y="-78.8" font-family="Times,serif" font-size="14.00">phys: 5</text>
<polyline fill="none" stroke="black" points="962,-71 1018,-71"/>
<text text-anchor="middle" x="990" y="-55.8" font-family="Times,serif" font-size="14.00">log: 1</text>
<polyline fill="none" stroke="black" points="1018,-48 1018,-94"/>
<text text-anchor="middle" x="1055" y="-67.3" font-family="Times,serif" font-size="14.00">val: 48879</text>
<polyline fill="none" stroke="black" points="1092,-48 1092,-94"/>
<text text-anchor="middle" x="1113" y="-78.8" font-family="Times,serif" font-size="14.00">n: 6</text>
<polyline fill="none" stroke="black" points="1092,-71 1134,-71"/>
<text text-anchor="middle" x="1113" y="-55.8" font-family="Times,serif" font-size="14.00">p: &#45;1</text>
</g>
<!-- label4&#45;&gt;label5 -->
<g id="edge5" class="edge">
<title>label4&#45;&gt;label5</title>
<path fill="none" stroke="#dce6e3" stroke-dasharray="5,2" d="M926.28,-64.34C938.01,-64.22 950.06,-64.22 961.79,-64.34"/>
</g>
<!-- label4&#45;&gt;label5 -->
<g id="edge12" class="edge">
<title>label4&#45;&gt;label5</title>
<path fill="none" stroke="#038c61" d="M926.28,-77.66C934.62,-77.75 943.12,-77.77 951.55,-77.73"/>
<polygon fill="#038c61" stroke="#038c61" points="951.81,-81.23 961.79,-77.66 951.76,-74.23 951.81,-81.23"/>
</g>
<!-- label6 -->
<g id="node7" class="node">
<title>label6</title>
<path fill="#0ba172" stroke="black" d="M1182,-48C1182,-48 1330,-48 1330,-48 1336,-48 1342,-54 1342,-60 1342,-60 1342,-82 1342,-82 1342,-88 1336,-94 1330,-94 1330,-94 1182,-94 1182,-94 1176,-94 1170,-88 1170,-82 1170,-82 1170,-60 1170,-60 1170,-54 1176,-48 1182,-48"/>
<text text-anchor="middle" x="1198" y="-78.8" font-family="Times,serif" font-size="14.00">phys: 6</text>
<polyline fill="none" stroke="black" points="1170,-71 1226,-71"/>
<text text-anchor="middle" x="1198" y="-55.8" font-family="Times,serif" font-size="14.00">log: 2</text>
<polyline fill="none" stroke="black" points="1226,-48 1226,-94"/>
<text text-anchor="middle" x="1263" y="-67.3" font-family="Times,serif" font-size="14.00">val: 48879</text>
<polyline fill="none" stroke="black" points="1300,-48 1300,-94"/>
<text text-anchor="middle" x="1321" y="-78.8" font-family="Times,serif" font-size="14.00">n: 7</text>
<polyline fill="none" stroke="black" points="1300,-71 1342,-71"/>
<text text-anchor="middle" x="1321" y="-55.8" font-family="Times,serif" font-size="14.00">p: &#45;1</text>
</g>
<!-- label5&#45;&gt;label6 -->
<g id="edge6" class="edge">
<title>label5&#45;&gt;label6</title>
<path fill="none" stroke="#dce6e3" stroke-dasharray="5,2" d="M1134.28,-64.34C1146.01,-64.22 1158.06,-64.22 1169.79,-64.34"/>
</g>
<!-- label5&#45;&gt;label6 -->
<g id="edge13" class="edge">
<title>label5&#45;&gt;label6</title>
<path fill="none" stroke="#038c61" d="M1134.28,-77.66C1142.62,-77.75 1151.12,-77.77 1159.55,-77.73"/>
<polygon fill="#038c61" stroke="#038c61" points="1159.81,-81.23 1169.79,-77.66 1159.76,-74.23 1159.81,-81.23"/>
</g>
<!-- label7 -->
<g id="node8" class="node">
<title>label7</title>
<path fill="#0ba172" stroke="black" d="M1390,-48C1390,-48 1538,-48 1538,-48 1544,-48 1550,-54 1550,-60 1550,-60 1550,-82 1550,-82 1550,-88 1544,-94 1538,-94 1538,-94 1390,-94 1390,-94 1384,-94 1378,-88 1378,-82 1378,-82 1378,-60 1378,-60 1378,-54 1384,-48 1390,-48"/>
<text text-anchor="middle" x="1406" y="-78.8" font-family="Times,serif" font-size="14.00">phys: 7</text>
<polyline fill="none" stroke="black" points="1378,-71 1434,-71"/>
<text text-anchor="middle" x="1406" y="-55.8" font-family="Times,serif" font-size="14.00">log: 3</text>
<polyline fill="none" stroke="black" points="1434,-48 1434,-94"/>
<text text-anchor="middle" x="1471" y="-67.3" font-family="Times,serif" font-size="14.00">val: 48879</text>
<polyline fill="none" stroke="black" points="1508,-48 1508,-94"/>
<text text-anchor="middle" x="1529" y="-78.8" font-family="Times,serif" font-size="14.00">n: 0</text>
<polyline fill="none" stroke="black" points="1508,-71 1550,-71"/>
<text text-anchor="middle" x="1529" y="-55.8" font-family="Times,serif" font-size="14.00">p: &#45;1</text>
</g>
<!-- label6&#45;&gt;label7 -->
<g id="edge7" class="edge">
<title>label6&#45;&gt;label7</title>
<path fill="none" stroke="#dce6e3" stroke-dasharray="5,2" d="M1342.28,-64.34C1354.01,-64.22 1366.06,-64.22 1377.79,-64.34"/>
</g>
<!-- label6&#45;&gt;label7 -->
<g id="edge14" class="edge">
<title>label6&#45;&gt;label7</title>
<path fill="none" stroke="#038c61" d="M1342.28,-77.66C1350.62,-77.75 1359.12,-77.77 1367.55,-77.73"/>
<polygon fill="#038c61" stroke="#038c61" points="1367.81,-81.23 1377.79,-77.66 1367.76,-74.23 1367.81,-81.23"/>
</g>
<!-- label7&#45;&gt;label0 -->
<g id="edge15" class="edge">
<title>label7&#45;&gt;label0</title>
<path fill="none" stroke="#038c61" d="M1381.64,-47.98C1368.45,-44.69 1354.9,-41.55 1342,-39 1213.13,-13.49 1180.37,0 1049,0 469.5,0 469.5,0 469.5,0 373.27,0 265.1,-20.73 189.75,-38.6"/>
<polygon fill="#038c61" stroke="#038c61" points="188.71,-35.25 179.81,-40.98 190.35,-42.05 188.71,-35.25"/>
</g>
</g>
</svg>
