<?xml version="1.0" encoding="UTF-8" standalone="no"?>
<!DOCTYPE svg PUBLIC "-//W3C//DTD SVG 1.1//EN"
 "http://www.w3.org/Graphics/SVG/1.1/DTD/svg11.dtd">
<!-- Generated by graphviz version 6.0.2 (20221011.1828)
 -->
<!-- Title: structs Pages: 1 -->
<svg width="1534pt" height="175pt"
 viewBox="0.00 0.00 1534.00 175.07" xmlns="http://www.w3.org/2000/svg" xmlns:xlink="http://www.w3.org/1999/xlink">
<g id="graph0" class="graph" transform="scale(1 1) rotate(0) translate(4 171.07)">
<title>structs</title>
<polygon fill="white" stroke="none" points="-4,4 -4,-171.07 1530,-171.07 1530,4 -4,4"/>
<!-- label0 -->
<g id="node1" class="node">
<title>label0</title>
<path fill="#f593a8" stroke="black" d="M12,-41C12,-41 175,-41 175,-41 181,-41 187,-47 187,-53 187,-53 187,-75 187,-75 187,-81 181,-87 175,-87 175,-87 12,-87 12,-87 6,-87 0,-81 0,-75 0,-75 0,-53 0,-53 0,-47 6,-41 12,-41"/>
<text text-anchor="middle" x="37.5" y="-71.8" font-family="Times,serif" font-size="14.00">phys: 0</text>
<polyline fill="none" stroke="black" points="0,-64 75,-64"/>
<text text-anchor="middle" x="37.5" y="-48.8" font-family="Times,serif" font-size="14.00">log: 48879</text>
<polyline fill="none" stroke="black" points="75,-41 75,-87"/>
<text text-anchor="middle" x="112" y="-60.3" font-family="Times,serif" font-size="14.00">val: 48879</text>
<polyline fill="none" stroke="black" points="149,-41 149,-87"/>
<text text-anchor="middle" x="168" y="-71.8" font-family="Times,serif" font-size="14.00">n: 4</text>
<polyline fill="none" stroke="black" points="149,-64 187,-64"/>
<text text-anchor="middle" x="168" y="-48.8" font-family="Times,serif" font-size="14.00">p: 3</text>
</g>
<!-- label1 -->
<g id="node2" class="node">
<title>label1</title>
<path fill="#72eb6c" stroke="black" d="M235,-67C235,-67 352,-67 352,-67 358,-67 364,-73 364,-79 364,-79 364,-101 364,-101 364,-107 358,-113 352,-113 352,-113 235,-113 235,-113 229,-113 223,-107 223,-101 223,-101 223,-79 223,-79 223,-73 229,-67 235,-67"/>
<text text-anchor="middle" x="251" y="-97.8" font-family="Times,serif" font-size="14.00">phys: 1</text>
<polyline fill="none" stroke="black" points="223,-90 279,-90"/>
<text text-anchor="middle" x="251" y="-74.8" font-family="Times,serif" font-size="14.00">log: 1</text>
<polyline fill="none" stroke="black" points="279,-67 279,-113"/>
<text text-anchor="middle" x="302.5" y="-86.3" font-family="Times,serif" font-size="14.00">val: 7</text>
<polyline fill="none" stroke="black" points="326,-67 326,-113"/>
<text text-anchor="middle" x="345" y="-97.8" font-family="Times,serif" font-size="14.00">n: 2</text>
<polyline fill="none" stroke="black" points="326,-90 364,-90"/>
<text text-anchor="middle" x="345" y="-74.8" font-family="Times,serif" font-size="14.00">p: 4</text>
</g>
<!-- label0&#45;&gt;label1 -->
<g id="edge1" class="edge">
<title>label0&#45;&gt;label1</title>
<path fill="none" stroke="#dce6e3" stroke-dasharray="5,2" d="M187.12,-76.16C199.1,-77.74 211.2,-79.32 222.72,-80.84"/>
</g>
<!-- label4 -->
<g id="node5" class="node">
<title>label4</title>
<path fill="#72eb6c" stroke="black" d="M766,-93C766,-93 890,-93 890,-93 896,-93 902,-99 902,-105 902,-105 902,-127 902,-127 902,-133 896,-139 890,-139 890,-139 766,-139 766,-139 760,-139 754,-133 754,-127 754,-127 754,-105 754,-105 754,-99 760,-93 766,-93"/>
<text text-anchor="middle" x="782" y="-123.8" font-family="Times,serif" font-size="14.00">phys: 4</text>
<polyline fill="none" stroke="black" points="754,-116 810,-116"/>
<text text-anchor="middle" x="782" y="-100.8" font-family="Times,serif" font-size="14.00">log: 0</text>
<polyline fill="none" stroke="black" points="810,-93 810,-139"/>
<text text-anchor="middle" x="837" y="-112.3" font-family="Times,serif" font-size="14.00">val: 11</text>
<polyline fill="none" stroke="black" points="864,-93 864,-139"/>
<text text-anchor="middle" x="883" y="-123.8" font-family="Times,serif" font-size="14.00">n: 1</text>
<polyline fill="none" stroke="black" points="864,-116 902,-116"/>
<text text-anchor="middle" x="883" y="-100.8" font-family="Times,serif" font-size="14.00">p: 0</text>
</g>
<!-- label0&#45;&gt;label4 -->
<g id="edge8" class="edge">
<title>label0&#45;&gt;label4</title>
<path fill="none" stroke="red" d="M135.74,-87.1C160.33,-99.79 192.59,-114.63 223,-123 435.32,-181.46 499.64,-173.55 718,-145 726.53,-143.88 735.35,-142.3 744.1,-140.43"/>
<polygon fill="red" stroke="red" points="744.95,-143.83 753.94,-138.22 743.41,-137 744.95,-143.83"/>
</g>
<!-- label2 -->
<g id="node3" class="node">
<title>label2</title>
<path fill="#72eb6c" stroke="black" d="M412,-67C412,-67 529,-67 529,-67 535,-67 541,-73 541,-79 541,-79 541,-101 541,-101 541,-107 535,-113 529,-113 529,-113 412,-113 412,-113 406,-113 400,-107 400,-101 400,-101 400,-79 400,-79 400,-73 406,-67 412,-67"/>
<text text-anchor="middle" x="428" y="-97.8" font-family="Times,serif" font-size="14.00">phys: 2</text>
<polyline fill="none" stroke="black" points="400,-90 456,-90"/>
<text text-anchor="middle" x="428" y="-74.8" font-family="Times,serif" font-size="14.00">log: 2</text>
<polyline fill="none" stroke="black" points="456,-67 456,-113"/>
<text text-anchor="middle" x="479.5" y="-86.3" font-family="Times,serif" font-size="14.00">val: 9</text>
<polyline fill="none" stroke="black" points="503,-67 503,-113"/>
<text text-anchor="middle" x="522" y="-97.8" font-family="Times,serif" font-size="14.00">n: 3</text>
<polyline fill="none" stroke="black" points="503,-90 541,-90"/>
<text text-anchor="middle" x="522" y="-74.8" font-family="Times,serif" font-size="14.00">p: 1</text>
</g>
<!-- label1&#45;&gt;label2 -->
<g id="edge2" class="edge">
<title>label1&#45;&gt;label2</title>
<path fill="none" stroke="#dce6e3" stroke-dasharray="5,2" d="M364.17,-83.38C375.89,-83.21 388.06,-83.21 399.79,-83.38"/>
</g>
<!-- label1&#45;&gt;label2 -->
<g id="edge10" class="edge">
<title>label1&#45;&gt;label2</title>
<path fill="none" stroke="red" d="M364.17,-96.62C372.5,-96.74 381.06,-96.78 389.53,-96.73"/>
<polygon fill="red" stroke="red" points="389.82,-100.23 399.79,-96.62 389.75,-93.23 389.82,-100.23"/>
</g>
<!-- label3 -->
<g id="node4" class="node">
<title>label3</title>
<path fill="#72eb6c" stroke="black" d="M589,-67C589,-67 706,-67 706,-67 712,-67 718,-73 718,-79 718,-79 718,-101 718,-101 718,-107 712,-113 706,-113 706,-113 589,-113 589,-113 583,-113 577,-107 577,-101 577,-101 577,-79 577,-79 577,-73 583,-67 589,-67"/>
<text text-anchor="middle" x="605" y="-97.8" font-family="Times,serif" font-size="14.00">phys: 3</text>
<polyline fill="none" stroke="black" points="577,-90 633,-90"/>
<text text-anchor="middle" x="605" y="-74.8" font-family="Times,serif" font-size="14.00">log: 3</text>
<polyline fill="none" stroke="black" points="633,-67 633,-113"/>
<text text-anchor="middle" x="656.5" y="-86.3" font-family="Times,serif" font-size="14.00">val: 1</text>
<polyline fill="none" stroke="black" points="680,-67 680,-113"/>
<text text-anchor="middle" x="699" y="-97.8" font-family="Times,serif" font-size="14.00">n: 0</text>
<polyline fill="none" stroke="black" points="680,-90 718,-90"/>
<text text-anchor="middle" x="699" y="-74.8" font-family="Times,serif" font-size="14.00">p: 2</text>
</g>
<!-- label2&#45;&gt;label3 -->
<g id="edge3" class="edge">
<title>label2&#45;&gt;label3</title>
<path fill="none" stroke="#dce6e3" stroke-dasharray="5,2" d="M541.17,-83.38C552.89,-83.21 565.06,-83.21 576.79,-83.38"/>
</g>
<!-- label2&#45;&gt;label3 -->
<g id="edge11" class="edge">
<title>label2&#45;&gt;label3</title>
<path fill="none" stroke="red" d="M541.17,-96.62C549.5,-96.74 558.06,-96.78 566.53,-96.73"/>
<polygon fill="red" stroke="red" points="566.82,-100.23 576.79,-96.62 566.75,-93.23 566.82,-100.23"/>
</g>
<!-- label3&#45;&gt;label0 -->
<g id="edge12" class="edge">
<title>label3&#45;&gt;label0</title>
<path fill="none" stroke="red" d="M581.34,-66.98C568.15,-63.25 554.25,-59.97 541,-58 424.03,-40.65 287.94,-46.11 197.03,-53.35"/>
<polygon fill="red" stroke="red" points="196.68,-49.87 187,-54.17 197.26,-56.84 196.68,-49.87"/>
</g>
<!-- label3&#45;&gt;label4 -->
<g id="edge4" class="edge">
<title>label3&#45;&gt;label4</title>
<path fill="none" stroke="#dce6e3" stroke-dasharray="5,2" d="M718.02,-100.13C729.77,-101.84 742,-103.62 753.83,-105.34"/>
</g>
<!-- label4&#45;&gt;label1 -->
<g id="edge9" class="edge">
<title>label4&#45;&gt;label1</title>
<path fill="none" stroke="red" d="M753.97,-124.58C668.55,-132.92 523.13,-141.81 400,-123 389.25,-121.36 378.09,-118.83 367.23,-115.88"/>
<polygon fill="red" stroke="red" points="367.94,-112.44 357.36,-113.07 366.02,-119.17 367.94,-112.44"/>
</g>
<!-- label5 -->
<g id="node6" class="node">
<title>label5</title>
<path fill="#0ba172" stroke="black" d="M950,-48C950,-48 1098,-48 1098,-48 1104,-48 1110,-54 1110,-60 1110,-60 1110,-82 1110,-82 1110,-88 1104,-94 1098,-94 1098,-94 950,-94 950,-94 944,-94 938,-88 938,-82 938,-82 938,-60 938,-60 938,-54 944,-48 950,-48"/>
<text text-anchor="middle" x="966" y="-78.8" font-family="Times,serif" font-size="14.00">phys: 5</text>
<polyline fill="none" stroke="black" points="938,-71 994,-71"/>
<text text-anchor="middle" x="966" y="-55.8" font-family="Times,serif" font-size="14.00">log: 0</text>
<polyline fill="none" stroke="black" points="994,-48 994,-94"/>
<text text-anchor="middle" x="1031" y="-67.3" font-family="Times,serif" font-size="14.00">val: 48879</text>
<polyline fill="none" stroke="black" points="1068,-48 1068,-94"/>
<text text-anchor="middle" x="1089" y="-78.8" font-family="Times,serif" font-size="14.00">n: 6</text>
<polyline fill="none" stroke="black" points="1068,-71 1110,-71"/>
<text text-anchor="middle" x="1089" y="-55.8" font-family="Times,serif" font-size="14.00">p: &#45;1</text>
</g>
<!-- label4&#45;&gt;label5 -->
<g id="edge5" class="edge">
<title>label4&#45;&gt;label5</title>
<path fill="none" stroke="#dce6e3" stroke-dasharray="5,2" d="M902.07,-99.05C913.77,-96.34 925.98,-93.51 937.94,-90.73"/>
</g>
<!-- label6 -->
<g id="node7" class="node">
<title>label6</title>
<path fill="#0ba172" stroke="black" d="M1158,-48C1158,-48 1306,-48 1306,-48 1312,-48 1318,-54 1318,-60 1318,-60 1318,-82 1318,-82 1318,-88 1312,-94 1306,-94 1306,-94 1158,-94 1158,-94 1152,-94 1146,-88 1146,-82 1146,-82 1146,-60 1146,-60 1146,-54 1152,-48 1158,-48"/>
<text text-anchor="middle" x="1174" y="-78.8" font-family="Times,serif" font-size="14.00">phys: 6</text>
<polyline fill="none" stroke="black" points="1146,-71 1202,-71"/>
<text text-anchor="middle" x="1174" y="-55.8" font-family="Times,serif" font-size="14.00">log: 1</text>
<polyline fill="none" stroke="black" points="1202,-48 1202,-94"/>
<text text-anchor="middle" x="1239" y="-67.3" font-family="Times,serif" font-size="14.00">val: 48879</text>
<polyline fill="none" stroke="black" points="1276,-48 1276,-94"/>
<text text-anchor="middle" x="1297" y="-78.8" font-family="Times,serif" font-size="14.00">n: 7</text>
<polyline fill="none" stroke="black" points="1276,-71 1318,-71"/>
<text text-anchor="middle" x="1297" y="-55.8" font-family="Times,serif" font-size="14.00">p: &#45;1</text>
</g>
<!-- label5&#45;&gt;label6 -->
<g id="edge6" class="edge">
<title>label5&#45;&gt;label6</title>
<path fill="none" stroke="#dce6e3" stroke-dasharray="5,2" d="M1110.28,-64.34C1122.01,-64.22 1134.06,-64.22 1145.79,-64.34"/>
</g>
<!-- label5&#45;&gt;label6 -->
<g id="edge13" class="edge">
<title>label5&#45;&gt;label6</title>
<path fill="none" stroke="#038c61" d="M1110.28,-77.66C1118.62,-77.75 1127.12,-77.77 1135.55,-77.73"/>
<polygon fill="#038c61" stroke="#038c61" points="1135.81,-81.23 1145.79,-77.66 1135.76,-74.23 1135.81,-81.23"/>
</g>
<!-- label7 -->
<g id="node8" class="node">
<title>label7</title>
<path fill="#0ba172" stroke="black" d="M1366,-48C1366,-48 1514,-48 1514,-48 1520,-48 1526,-54 1526,-60 1526,-60 1526,-82 1526,-82 1526,-88 1520,-94 1514,-94 1514,-94 1366,-94 1366,-94 1360,-94 1354,-88 1354,-82 1354,-82 1354,-60 1354,-60 1354,-54 1360,-48 1366,-48"/>
<text text-anchor="middle" x="1382" y="-78.8" font-family="Times,serif" font-size="14.00">phys: 7</text>
<polyline fill="none" stroke="black" points="1354,-71 1410,-71"/>
<text text-anchor="middle" x="1382" y="-55.8" font-family="Times,serif" font-size="14.00">log: 2</text>
<polyline fill="none" stroke="black" points="1410,-48 1410,-94"/>
<text text-anchor="middle" x="1447" y="-67.3" font-family="Times,serif" font-size="14.00">val: 48879</text>
<polyline fill="none" stroke="black" points="1484,-48 1484,-94"/>
<text text-anchor="middle" x="1505" y="-78.8" font-family="Times,serif" font-size="14.00">n: 0</text>
<polyline fill="none" stroke="black" points="1484,-71 1526,-71"/>
<text text-anchor="middle" x="1505" y="-55.8" font-family="Times,serif" font-size="14.00">p: &#45;1</text>
</g>
<!-- label6&#45;&gt;label7 -->
<g id="edge7" class="edge">
<title>label6&#45;&gt;label7</title>
<path fill="none" stroke="#dce6e3" stroke-dasharray="5,2" d="M1318.28,-64.34C1330.01,-64.22 1342.06,-64.22 1353.79,-64.34"/>
</g>
<!-- label6&#45;&gt;label7 -->
<g id="edge14" class="edge">
<title>label6&#45;&gt;label7</title>
<path fill="none" stroke="#038c61" d="M1318.28,-77.66C1326.62,-77.75 1335.12,-77.77 1343.55,-77.73"/>
<polygon fill="#038c61" stroke="#038c61" points="1343.81,-81.23 1353.79,-77.66 1343.76,-74.23 1343.81,-81.23"/>
</g>
<!-- label7&#45;&gt;label0 -->
<g id="edge15" class="edge">
<title>label7&#45;&gt;label0</title>
<path fill="none" stroke="#038c61" d="M1357.64,-47.98C1344.45,-44.69 1330.9,-41.55 1318,-39 1189.13,-13.49 1156.37,0 1025,0 469.5,0 469.5,0 469.5,0 373.27,0 265.1,-20.73 189.75,-38.6"/>
<polygon fill="#038c61" stroke="#038c61" points="188.71,-35.25 179.81,-40.98 190.35,-42.05 188.71,-35.25"/>
</g>
</g>
</svg>
