<?xml version="1.0" encoding="UTF-8" standalone="no"?>
<!DOCTYPE svg PUBLIC "-//W3C//DTD SVG 1.1//EN"
 "http://www.w3.org/Graphics/SVG/1.1/DTD/svg11.dtd">
<!-- Generated by graphviz version 6.0.2 (20221011.1828)
 -->
<!-- Title: structs Pages: 1 -->
<svg width="1510pt" height="188pt"
 viewBox="0.00 0.00 1510.00 187.95" xmlns="http://www.w3.org/2000/svg" xmlns:xlink="http://www.w3.org/1999/xlink">
<g id="graph0" class="graph" transform="scale(1 1) rotate(0) translate(4 183.95)">
<title>structs</title>
<polygon fill="white" stroke="none" points="-4,4 -4,-183.95 1506,-183.95 1506,4 -4,4"/>
<!-- label0 -->
<g id="node1" class="node">
<title>label0</title>
<path fill="#f593a8" stroke="black" d="M12,-48.45C12,-48.45 175,-48.45 175,-48.45 181,-48.45 187,-54.45 187,-60.45 187,-60.45 187,-82.45 187,-82.45 187,-88.45 181,-94.45 175,-94.45 175,-94.45 12,-94.45 12,-94.45 6,-94.45 0,-88.45 0,-82.45 0,-82.45 0,-60.45 0,-60.45 0,-54.45 6,-48.45 12,-48.45"/>
<text text-anchor="middle" x="37.5" y="-79.25" font-family="Times,serif" font-size="14.00">phys: 0</text>
<polyline fill="none" stroke="black" points="0,-71.45 75,-71.45"/>
<text text-anchor="middle" x="37.5" y="-56.25" font-family="Times,serif" font-size="14.00">log: 48879</text>
<polyline fill="none" stroke="black" points="75,-48.45 75,-94.45"/>
<text text-anchor="middle" x="112" y="-67.75" font-family="Times,serif" font-size="14.00">val: 48879</text>
<polyline fill="none" stroke="black" points="149,-48.45 149,-94.45"/>
<text text-anchor="middle" x="168" y="-79.25" font-family="Times,serif" font-size="14.00">n: 4</text>
<polyline fill="none" stroke="black" points="149,-71.45 187,-71.45"/>
<text text-anchor="middle" x="168" y="-56.25" font-family="Times,serif" font-size="14.00">p: 3</text>
</g>
<!-- label1 -->
<g id="node2" class="node">
<title>label1</title>
<path fill="#72eb6c" stroke="black" d="M235,-74.45C235,-74.45 352,-74.45 352,-74.45 358,-74.45 364,-80.45 364,-86.45 364,-86.45 364,-108.45 364,-108.45 364,-114.45 358,-120.45 352,-120.45 352,-120.45 235,-120.45 235,-120.45 229,-120.45 223,-114.45 223,-108.45 223,-108.45 223,-86.45 223,-86.45 223,-80.45 229,-74.45 235,-74.45"/>
<text text-anchor="middle" x="251" y="-105.25" font-family="Times,serif" font-size="14.00">phys: 1</text>
<polyline fill="none" stroke="black" points="223,-97.45 279,-97.45"/>
<text text-anchor="middle" x="251" y="-82.25" font-family="Times,serif" font-size="14.00">log: 1</text>
<polyline fill="none" stroke="black" points="279,-74.45 279,-120.45"/>
<text text-anchor="middle" x="302.5" y="-93.75" font-family="Times,serif" font-size="14.00">val: 7</text>
<polyline fill="none" stroke="black" points="326,-74.45 326,-120.45"/>
<text text-anchor="middle" x="345" y="-105.25" font-family="Times,serif" font-size="14.00">n: 2</text>
<polyline fill="none" stroke="black" points="326,-97.45 364,-97.45"/>
<text text-anchor="middle" x="345" y="-82.25" font-family="Times,serif" font-size="14.00">p: 4</text>
</g>
<!-- label0&#45;&gt;label1 -->
<g id="edge1" class="edge">
<title>label0&#45;&gt;label1</title>
<path fill="none" stroke="#dce6e3" stroke-dasharray="5,2" d="M187.12,-83.61C199.1,-85.18 211.2,-86.77 222.72,-88.29"/>
</g>
<!-- label4 -->
<g id="node5" class="node">
<title>label4</title>
<path fill="#72eb6c" stroke="black" d="M766,-133.45C766,-133.45 890,-133.45 890,-133.45 896,-133.45 902,-139.45 902,-145.45 902,-145.45 902,-167.45 902,-167.45 902,-173.45 896,-179.45 890,-179.45 890,-179.45 766,-179.45 766,-179.45 760,-179.45 754,-173.45 754,-167.45 754,-167.45 754,-145.45 754,-145.45 754,-139.45 760,-133.45 766,-133.45"/>
<text text-anchor="middle" x="782" y="-164.25" font-family="Times,serif" font-size="14.00">phys: 4</text>
<polyline fill="none" stroke="black" points="754,-156.45 810,-156.45"/>
<text text-anchor="middle" x="782" y="-141.25" font-family="Times,serif" font-size="14.00">log: 0</text>
<polyline fill="none" stroke="black" points="810,-133.45 810,-179.45"/>
<text text-anchor="middle" x="837" y="-152.75" font-family="Times,serif" font-size="14.00">val: 11</text>
<polyline fill="none" stroke="black" points="864,-133.45 864,-179.45"/>
<text text-anchor="middle" x="883" y="-164.25" font-family="Times,serif" font-size="14.00">n: 1</text>
<polyline fill="none" stroke="black" points="864,-156.45 902,-156.45"/>
<text text-anchor="middle" x="883" y="-141.25" font-family="Times,serif" font-size="14.00">p: 0</text>
</g>
<!-- label0&#45;&gt;label4 -->
<g id="edge8" class="edge">
<title>label0&#45;&gt;label4</title>
<path fill="none" stroke="red" d="M136.08,-94.5C160.65,-107.1 192.78,-121.85 223,-130.45 435.2,-190.79 497.67,-178.54 718,-167.45 726.33,-167.03 735,-166.43 743.66,-165.73"/>
<polygon fill="red" stroke="red" points="744.12,-169.2 753.79,-164.86 743.52,-162.23 744.12,-169.2"/>
</g>
<!-- label2 -->
<g id="node3" class="node">
<title>label2</title>
<path fill="#72eb6c" stroke="black" d="M412,-74.45C412,-74.45 529,-74.45 529,-74.45 535,-74.45 541,-80.45 541,-86.45 541,-86.45 541,-108.45 541,-108.45 541,-114.45 535,-120.45 529,-120.45 529,-120.45 412,-120.45 412,-120.45 406,-120.45 400,-114.45 400,-108.45 400,-108.45 400,-86.45 400,-86.45 400,-80.45 406,-74.45 412,-74.45"/>
<text text-anchor="middle" x="428" y="-105.25" font-family="Times,serif" font-size="14.00">phys: 2</text>
<polyline fill="none" stroke="black" points="400,-97.45 456,-97.45"/>
<text text-anchor="middle" x="428" y="-82.25" font-family="Times,serif" font-size="14.00">log: 2</text>
<polyline fill="none" stroke="black" points="456,-74.45 456,-120.45"/>
<text text-anchor="middle" x="479.5" y="-93.75" font-family="Times,serif" font-size="14.00">val: 9</text>
<polyline fill="none" stroke="black" points="503,-74.45 503,-120.45"/>
<text text-anchor="middle" x="522" y="-105.25" font-family="Times,serif" font-size="14.00">n: 5</text>
<polyline fill="none" stroke="black" points="503,-97.45 541,-97.45"/>
<text text-anchor="middle" x="522" y="-82.25" font-family="Times,serif" font-size="14.00">p: 1</text>
</g>
<!-- label1&#45;&gt;label2 -->
<g id="edge2" class="edge">
<title>label1&#45;&gt;label2</title>
<path fill="none" stroke="#dce6e3" stroke-dasharray="5,2" d="M364.17,-90.82C375.89,-90.66 388.06,-90.66 399.79,-90.82"/>
</g>
<!-- label1&#45;&gt;label2 -->
<g id="edge10" class="edge">
<title>label1&#45;&gt;label2</title>
<path fill="none" stroke="red" d="M364.17,-104.07C372.5,-104.19 381.06,-104.23 389.53,-104.18"/>
<polygon fill="red" stroke="red" points="389.82,-107.67 399.79,-104.07 389.75,-100.67 389.82,-107.67"/>
</g>
<!-- label3 -->
<g id="node4" class="node">
<title>label3</title>
<path fill="#72eb6c" stroke="black" d="M589,-29.45C589,-29.45 706,-29.45 706,-29.45 712,-29.45 718,-35.45 718,-41.45 718,-41.45 718,-63.45 718,-63.45 718,-69.45 712,-75.45 706,-75.45 706,-75.45 589,-75.45 589,-75.45 583,-75.45 577,-69.45 577,-63.45 577,-63.45 577,-41.45 577,-41.45 577,-35.45 583,-29.45 589,-29.45"/>
<text text-anchor="middle" x="605" y="-60.25" font-family="Times,serif" font-size="14.00">phys: 3</text>
<polyline fill="none" stroke="black" points="577,-52.45 633,-52.45"/>
<text text-anchor="middle" x="605" y="-37.25" font-family="Times,serif" font-size="14.00">log: 4</text>
<polyline fill="none" stroke="black" points="633,-29.45 633,-75.45"/>
<text text-anchor="middle" x="656.5" y="-48.75" font-family="Times,serif" font-size="14.00">val: 1</text>
<polyline fill="none" stroke="black" points="680,-29.45 680,-75.45"/>
<text text-anchor="middle" x="699" y="-60.25" font-family="Times,serif" font-size="14.00">n: 0</text>
<polyline fill="none" stroke="black" points="680,-52.45 718,-52.45"/>
<text text-anchor="middle" x="699" y="-37.25" font-family="Times,serif" font-size="14.00">p: 5</text>
</g>
<!-- label2&#45;&gt;label3 -->
<g id="edge3" class="edge">
<title>label2&#45;&gt;label3</title>
<path fill="none" stroke="#dce6e3" stroke-dasharray="5,2" d="M541.17,-79.53C552.89,-76.52 565.06,-73.39 576.79,-70.37"/>
</g>
<!-- label5 -->
<g id="node6" class="node">
<title>label5</title>
<path fill="#72eb6c" stroke="black" d="M950,-58.45C950,-58.45 1074,-58.45 1074,-58.45 1080,-58.45 1086,-64.45 1086,-70.45 1086,-70.45 1086,-92.45 1086,-92.45 1086,-98.45 1080,-104.45 1074,-104.45 1074,-104.45 950,-104.45 950,-104.45 944,-104.45 938,-98.45 938,-92.45 938,-92.45 938,-70.45 938,-70.45 938,-64.45 944,-58.45 950,-58.45"/>
<text text-anchor="middle" x="966" y="-89.25" font-family="Times,serif" font-size="14.00">phys: 5</text>
<polyline fill="none" stroke="black" points="938,-81.45 994,-81.45"/>
<text text-anchor="middle" x="966" y="-66.25" font-family="Times,serif" font-size="14.00">log: 3</text>
<polyline fill="none" stroke="black" points="994,-58.45 994,-104.45"/>
<text text-anchor="middle" x="1021" y="-77.75" font-family="Times,serif" font-size="14.00">val: 12</text>
<polyline fill="none" stroke="black" points="1048,-58.45 1048,-104.45"/>
<text text-anchor="middle" x="1067" y="-89.25" font-family="Times,serif" font-size="14.00">n: 3</text>
<polyline fill="none" stroke="black" points="1048,-81.45 1086,-81.45"/>
<text text-anchor="middle" x="1067" y="-66.25" font-family="Times,serif" font-size="14.00">p: 2</text>
</g>
<!-- label2&#45;&gt;label5 -->
<g id="edge11" class="edge">
<title>label2&#45;&gt;label5</title>
<path fill="none" stroke="red" d="M541.2,-95.38C640.27,-92.44 821.51,-87.07 927.59,-83.92"/>
<polygon fill="red" stroke="red" points="927.72,-87.42 937.61,-83.62 927.51,-80.42 927.72,-87.42"/>
</g>
<!-- label3&#45;&gt;label0 -->
<g id="edge13" class="edge">
<title>label3&#45;&gt;label0</title>
<path fill="none" stroke="red" d="M576.79,-54.25C492.85,-56.49 347.59,-60.63 223,-65.45 214.66,-65.77 206.01,-66.13 197.33,-66.5"/>
<polygon fill="red" stroke="red" points="196.98,-63.01 187.14,-66.95 197.28,-70.01 196.98,-63.01"/>
</g>
<!-- label3&#45;&gt;label4 -->
<g id="edge4" class="edge">
<title>label3&#45;&gt;label4</title>
<path fill="none" stroke="#dce6e3" stroke-dasharray="5,2" d="M688.11,-75.53C717.7,-92.76 757.94,-116.21 787.5,-133.43"/>
</g>
<!-- label4&#45;&gt;label1 -->
<g id="edge9" class="edge">
<title>label4&#45;&gt;label1</title>
<path fill="none" stroke="red" d="M753.82,-157.35C668.26,-157.17 522.71,-153.03 400,-130.45 389.92,-128.59 379.45,-126.07 369.19,-123.25"/>
<polygon fill="red" stroke="red" points="370.02,-119.85 359.44,-120.46 368.1,-126.58 370.02,-119.85"/>
</g>
<!-- label4&#45;&gt;label5 -->
<g id="edge5" class="edge">
<title>label4&#45;&gt;label5</title>
<path fill="none" stroke="#dce6e3" stroke-dasharray="5,2" d="M885.09,-133.33C907.34,-124.17 932.87,-113.65 955.09,-104.49"/>
</g>
<!-- label5&#45;&gt;label3 -->
<g id="edge12" class="edge">
<title>label5&#45;&gt;label3</title>
<path fill="none" stroke="red" d="M937.9,-75.6C877.25,-70.75 791.12,-63.86 728.61,-58.86"/>
<polygon fill="red" stroke="red" points="728.64,-55.35 718.39,-58.04 728.08,-62.33 728.64,-55.35"/>
</g>
<!-- label6 -->
<g id="node7" class="node">
<title>label6</title>
<path fill="#0ba172" stroke="black" d="M1134,-29.45C1134,-29.45 1282,-29.45 1282,-29.45 1288,-29.45 1294,-35.45 1294,-41.45 1294,-41.45 1294,-63.45 1294,-63.45 1294,-69.45 1288,-75.45 1282,-75.45 1282,-75.45 1134,-75.45 1134,-75.45 1128,-75.45 1122,-69.45 1122,-63.45 1122,-63.45 1122,-41.45 1122,-41.45 1122,-35.45 1128,-29.45 1134,-29.45"/>
<text text-anchor="middle" x="1150" y="-60.25" font-family="Times,serif" font-size="14.00">phys: 6</text>
<polyline fill="none" stroke="black" points="1122,-52.45 1178,-52.45"/>
<text text-anchor="middle" x="1150" y="-37.25" font-family="Times,serif" font-size="14.00">log: 0</text>
<polyline fill="none" stroke="black" points="1178,-29.45 1178,-75.45"/>
<text text-anchor="middle" x="1215" y="-48.75" font-family="Times,serif" font-size="14.00">val: 48879</text>
<polyline fill="none" stroke="black" points="1252,-29.45 1252,-75.45"/>
<text text-anchor="middle" x="1273" y="-60.25" font-family="Times,serif" font-size="14.00">n: 7</text>
<polyline fill="none" stroke="black" points="1252,-52.45 1294,-52.45"/>
<text text-anchor="middle" x="1273" y="-37.25" font-family="Times,serif" font-size="14.00">p: &#45;1</text>
</g>
<!-- label5&#45;&gt;label6 -->
<g id="edge6" class="edge">
<title>label5&#45;&gt;label6</title>
<path fill="none" stroke="#dce6e3" stroke-dasharray="5,2" d="M1086.07,-70.53C1097.77,-68.78 1109.98,-66.95 1121.94,-65.16"/>
</g>
<!-- label7 -->
<g id="node8" class="node">
<title>label7</title>
<path fill="#0ba172" stroke="black" d="M1342,-29.45C1342,-29.45 1490,-29.45 1490,-29.45 1496,-29.45 1502,-35.45 1502,-41.45 1502,-41.45 1502,-63.45 1502,-63.45 1502,-69.45 1496,-75.45 1490,-75.45 1490,-75.45 1342,-75.45 1342,-75.45 1336,-75.45 1330,-69.45 1330,-63.45 1330,-63.45 1330,-41.45 1330,-41.45 1330,-35.45 1336,-29.45 1342,-29.45"/>
<text text-anchor="middle" x="1358" y="-60.25" font-family="Times,serif" font-size="14.00">phys: 7</text>
<polyline fill="none" stroke="black" points="1330,-52.45 1386,-52.45"/>
<text text-anchor="middle" x="1358" y="-37.25" font-family="Times,serif" font-size="14.00">log: 1</text>
<polyline fill="none" stroke="black" points="1386,-29.45 1386,-75.45"/>
<text text-anchor="middle" x="1423" y="-48.75" font-family="Times,serif" font-size="14.00">val: 48879</text>
<polyline fill="none" stroke="black" points="1460,-29.45 1460,-75.45"/>
<text text-anchor="middle" x="1481" y="-60.25" font-family="Times,serif" font-size="14.00">n: 0</text>
<polyline fill="none" stroke="black" points="1460,-52.45 1502,-52.45"/>
<text text-anchor="middle" x="1481" y="-37.25" font-family="Times,serif" font-size="14.00">p: &#45;1</text>
</g>
<!-- label6&#45;&gt;label7 -->
<g id="edge7" class="edge">
<title>label6&#45;&gt;label7</title>
<path fill="none" stroke="#dce6e3" stroke-dasharray="5,2" d="M1294.28,-45.79C1306.01,-45.67 1318.06,-45.67 1329.79,-45.79"/>
</g>
<!-- label6&#45;&gt;label7 -->
<g id="edge14" class="edge">
<title>label6&#45;&gt;label7</title>
<path fill="none" stroke="#038c61" d="M1294.28,-59.11C1302.62,-59.19 1311.12,-59.22 1319.55,-59.18"/>
<polygon fill="#038c61" stroke="#038c61" points="1319.81,-62.68 1329.79,-59.11 1319.76,-55.68 1319.81,-62.68"/>
</g>
<!-- label7&#45;&gt;label0 -->
<g id="edge15" class="edge">
<title>label7&#45;&gt;label0</title>
<path fill="none" stroke="#038c61" d="M1339.67,-29.43C1324.66,-25.54 1308.92,-21.96 1294,-19.45 1170.56,1.34 1138.17,-0.45 1013,-0.45 469.5,-0.45 469.5,-0.45 469.5,-0.45 368.99,-0.45 255.93,-25.38 180.48,-45.69"/>
<polygon fill="#038c61" stroke="#038c61" points="179.28,-42.39 170.55,-48.4 181.12,-49.14 179.28,-42.39"/>
</g>
</g>
</svg>
