<?xml version="1.0" encoding="UTF-8" standalone="no"?>
<!DOCTYPE svg PUBLIC "-//W3C//DTD SVG 1.1//EN"
 "http://www.w3.org/Graphics/SVG/1.1/DTD/svg11.dtd">
<!-- Generated by graphviz version 6.0.2 (20221011.1828)
 -->
<!-- Title: structs Pages: 1 -->
<svg width="1510pt" height="122pt"
 viewBox="0.00 0.00 1510.00 121.50" xmlns="http://www.w3.org/2000/svg" xmlns:xlink="http://www.w3.org/1999/xlink">
<g id="graph0" class="graph" transform="scale(1 1) rotate(0) translate(4 117.5)">
<title>structs</title>
<polygon fill="white" stroke="none" points="-4,4 -4,-117.5 1506,-117.5 1506,4 -4,4"/>
<!-- label0 -->
<g id="node1" class="node">
<title>label0</title>
<path fill="#f593a8" stroke="black" d="M12,-41C12,-41 175,-41 175,-41 181,-41 187,-47 187,-53 187,-53 187,-75 187,-75 187,-81 181,-87 175,-87 175,-87 12,-87 12,-87 6,-87 0,-81 0,-75 0,-75 0,-53 0,-53 0,-47 6,-41 12,-41"/>
<text text-anchor="middle" x="37.5" y="-71.8" font-family="Times,serif" font-size="14.00">phys: 0</text>
<polyline fill="none" stroke="black" points="0,-64 75,-64"/>
<text text-anchor="middle" x="37.5" y="-48.8" font-family="Times,serif" font-size="14.00">log: 48879</text>
<polyline fill="none" stroke="black" points="75,-41 75,-87"/>
<text text-anchor="middle" x="112" y="-60.3" font-family="Times,serif" font-size="14.00">val: 48879</text>
<polyline fill="none" stroke="black" points="149,-41 149,-87"/>
<text text-anchor="middle" x="168" y="-71.8" font-family="Times,serif" font-size="14.00">n: 1</text>
<polyline fill="none" stroke="black" points="149,-64 187,-64"/>
<text text-anchor="middle" x="168" y="-48.8" font-family="Times,serif" font-size="14.00">p: 5</text>
</g>
<!-- label1 -->
<g id="node2" class="node">
<title>label1</title>
<path fill="#72eb6c" stroke="black" d="M235,-67C235,-67 359,-67 359,-67 365,-67 371,-73 371,-79 371,-79 371,-101 371,-101 371,-107 365,-113 359,-113 359,-113 235,-113 235,-113 229,-113 223,-107 223,-101 223,-101 223,-79 223,-79 223,-73 229,-67 235,-67"/>
<text text-anchor="middle" x="251" y="-97.8" font-family="Times,serif" font-size="14.00">phys: 1</text>
<polyline fill="none" stroke="black" points="223,-90 279,-90"/>
<text text-anchor="middle" x="251" y="-74.8" font-family="Times,serif" font-size="14.00">log: 0</text>
<polyline fill="none" stroke="black" points="279,-67 279,-113"/>
<text text-anchor="middle" x="306" y="-86.3" font-family="Times,serif" font-size="14.00">val: 11</text>
<polyline fill="none" stroke="black" points="333,-67 333,-113"/>
<text text-anchor="middle" x="352" y="-97.8" font-family="Times,serif" font-size="14.00">n: 2</text>
<polyline fill="none" stroke="black" points="333,-90 371,-90"/>
<text text-anchor="middle" x="352" y="-74.8" font-family="Times,serif" font-size="14.00">p: 0</text>
</g>
<!-- label0&#45;&gt;label1 -->
<g id="edge1" class="edge">
<title>label0&#45;&gt;label1</title>
<path fill="none" stroke="#dce6e3" stroke-dasharray="5,2" d="M187.29,-69.24C199.17,-70.72 211.19,-72.34 222.7,-74.02"/>
</g>
<!-- label0&#45;&gt;label1 -->
<g id="edge8" class="edge">
<title>label0&#45;&gt;label1</title>
<path fill="none" stroke="red" d="M187.29,-82.7C195.73,-83.83 204.25,-84.91 212.61,-85.9"/>
<polygon fill="red" stroke="red" points="212.37,-89.4 222.7,-87.06 213.17,-82.44 212.37,-89.4"/>
</g>
<!-- label2 -->
<g id="node3" class="node">
<title>label2</title>
<path fill="#72eb6c" stroke="black" d="M419,-67C419,-67 536,-67 536,-67 542,-67 548,-73 548,-79 548,-79 548,-101 548,-101 548,-107 542,-113 536,-113 536,-113 419,-113 419,-113 413,-113 407,-107 407,-101 407,-101 407,-79 407,-79 407,-73 413,-67 419,-67"/>
<text text-anchor="middle" x="435" y="-97.8" font-family="Times,serif" font-size="14.00">phys: 2</text>
<polyline fill="none" stroke="black" points="407,-90 463,-90"/>
<text text-anchor="middle" x="435" y="-74.8" font-family="Times,serif" font-size="14.00">log: 1</text>
<polyline fill="none" stroke="black" points="463,-67 463,-113"/>
<text text-anchor="middle" x="486.5" y="-86.3" font-family="Times,serif" font-size="14.00">val: 7</text>
<polyline fill="none" stroke="black" points="510,-67 510,-113"/>
<text text-anchor="middle" x="529" y="-97.8" font-family="Times,serif" font-size="14.00">n: 3</text>
<polyline fill="none" stroke="black" points="510,-90 548,-90"/>
<text text-anchor="middle" x="529" y="-74.8" font-family="Times,serif" font-size="14.00">p: 1</text>
</g>
<!-- label1&#45;&gt;label2 -->
<g id="edge2" class="edge">
<title>label1&#45;&gt;label2</title>
<path fill="none" stroke="#dce6e3" stroke-dasharray="5,2" d="M371.12,-83.35C382.96,-83.2 395.19,-83.22 406.95,-83.4"/>
</g>
<!-- label1&#45;&gt;label2 -->
<g id="edge9" class="edge">
<title>label1&#45;&gt;label2</title>
<path fill="none" stroke="red" d="M371.12,-96.65C379.63,-96.76 388.34,-96.78 396.94,-96.71"/>
<polygon fill="red" stroke="red" points="396.99,-100.21 406.95,-96.6 396.91,-93.21 396.99,-100.21"/>
</g>
<!-- label3 -->
<g id="node4" class="node">
<title>label3</title>
<path fill="#72eb6c" stroke="black" d="M596,-67C596,-67 713,-67 713,-67 719,-67 725,-73 725,-79 725,-79 725,-101 725,-101 725,-107 719,-113 713,-113 713,-113 596,-113 596,-113 590,-113 584,-107 584,-101 584,-101 584,-79 584,-79 584,-73 590,-67 596,-67"/>
<text text-anchor="middle" x="612" y="-97.8" font-family="Times,serif" font-size="14.00">phys: 3</text>
<polyline fill="none" stroke="black" points="584,-90 640,-90"/>
<text text-anchor="middle" x="612" y="-74.8" font-family="Times,serif" font-size="14.00">log: 2</text>
<polyline fill="none" stroke="black" points="640,-67 640,-113"/>
<text text-anchor="middle" x="663.5" y="-86.3" font-family="Times,serif" font-size="14.00">val: 9</text>
<polyline fill="none" stroke="black" points="687,-67 687,-113"/>
<text text-anchor="middle" x="706" y="-97.8" font-family="Times,serif" font-size="14.00">n: 4</text>
<polyline fill="none" stroke="black" points="687,-90 725,-90"/>
<text text-anchor="middle" x="706" y="-74.8" font-family="Times,serif" font-size="14.00">p: 2</text>
</g>
<!-- label2&#45;&gt;label3 -->
<g id="edge3" class="edge">
<title>label2&#45;&gt;label3</title>
<path fill="none" stroke="#dce6e3" stroke-dasharray="5,2" d="M548.17,-83.38C559.89,-83.21 572.06,-83.21 583.79,-83.38"/>
</g>
<!-- label2&#45;&gt;label3 -->
<g id="edge10" class="edge">
<title>label2&#45;&gt;label3</title>
<path fill="none" stroke="red" d="M548.17,-96.62C556.5,-96.74 565.06,-96.78 573.53,-96.73"/>
<polygon fill="red" stroke="red" points="573.82,-100.23 583.79,-96.62 573.75,-93.23 573.82,-100.23"/>
</g>
<!-- label4 -->
<g id="node5" class="node">
<title>label4</title>
<path fill="#72eb6c" stroke="black" d="M773,-67C773,-67 897,-67 897,-67 903,-67 909,-73 909,-79 909,-79 909,-101 909,-101 909,-107 903,-113 897,-113 897,-113 773,-113 773,-113 767,-113 761,-107 761,-101 761,-101 761,-79 761,-79 761,-73 767,-67 773,-67"/>
<text text-anchor="middle" x="789" y="-97.8" font-family="Times,serif" font-size="14.00">phys: 4</text>
<polyline fill="none" stroke="black" points="761,-90 817,-90"/>
<text text-anchor="middle" x="789" y="-74.8" font-family="Times,serif" font-size="14.00">log: 3</text>
<polyline fill="none" stroke="black" points="817,-67 817,-113"/>
<text text-anchor="middle" x="844" y="-86.3" font-family="Times,serif" font-size="14.00">val: 12</text>
<polyline fill="none" stroke="black" points="871,-67 871,-113"/>
<text text-anchor="middle" x="890" y="-97.8" font-family="Times,serif" font-size="14.00">n: 5</text>
<polyline fill="none" stroke="black" points="871,-90 909,-90"/>
<text text-anchor="middle" x="890" y="-74.8" font-family="Times,serif" font-size="14.00">p: 3</text>
</g>
<!-- label3&#45;&gt;label4 -->
<g id="edge4" class="edge">
<title>label3&#45;&gt;label4</title>
<path fill="none" stroke="#dce6e3" stroke-dasharray="5,2" d="M725.02,-83.4C736.77,-83.22 749,-83.2 760.83,-83.35"/>
</g>
<!-- label3&#45;&gt;label4 -->
<g id="edge11" class="edge">
<title>label3&#45;&gt;label4</title>
<path fill="none" stroke="red" d="M725.02,-96.6C733.47,-96.73 742.16,-96.78 750.77,-96.74"/>
<polygon fill="red" stroke="red" points="750.86,-100.24 760.83,-96.65 750.8,-93.24 750.86,-100.24"/>
</g>
<!-- label5 -->
<g id="node6" class="node">
<title>label5</title>
<path fill="#72eb6c" stroke="black" d="M957,-57C957,-57 1074,-57 1074,-57 1080,-57 1086,-63 1086,-69 1086,-69 1086,-91 1086,-91 1086,-97 1080,-103 1074,-103 1074,-103 957,-103 957,-103 951,-103 945,-97 945,-91 945,-91 945,-69 945,-69 945,-63 951,-57 957,-57"/>
<text text-anchor="middle" x="973" y="-87.8" font-family="Times,serif" font-size="14.00">phys: 5</text>
<polyline fill="none" stroke="black" points="945,-80 1001,-80"/>
<text text-anchor="middle" x="973" y="-64.8" font-family="Times,serif" font-size="14.00">log: 4</text>
<polyline fill="none" stroke="black" points="1001,-57 1001,-103"/>
<text text-anchor="middle" x="1024.5" y="-76.3" font-family="Times,serif" font-size="14.00">val: 1</text>
<polyline fill="none" stroke="black" points="1048,-57 1048,-103"/>
<text text-anchor="middle" x="1067" y="-87.8" font-family="Times,serif" font-size="14.00">n: 0</text>
<polyline fill="none" stroke="black" points="1048,-80 1086,-80"/>
<text text-anchor="middle" x="1067" y="-64.8" font-family="Times,serif" font-size="14.00">p: 4</text>
</g>
<!-- label4&#45;&gt;label5 -->
<g id="edge5" class="edge">
<title>label4&#45;&gt;label5</title>
<path fill="none" stroke="#dce6e3" stroke-dasharray="5,2" d="M909.12,-79.25C920.96,-78.44 933.19,-77.77 944.95,-77.29"/>
</g>
<!-- label4&#45;&gt;label5 -->
<g id="edge12" class="edge">
<title>label4&#45;&gt;label5</title>
<path fill="none" stroke="red" d="M909.12,-92.55C917.63,-92.18 926.34,-91.72 934.94,-91.17"/>
<polygon fill="red" stroke="red" points="935.21,-94.66 944.95,-90.5 934.74,-87.68 935.21,-94.66"/>
</g>
<!-- label5&#45;&gt;label0 -->
<g id="edge13" class="edge">
<title>label5&#45;&gt;label0</title>
<path fill="none" stroke="red" d="M944.92,-64.19C932.98,-61.85 920.67,-59.67 909,-58 797.12,-41.99 768.52,-38 655.5,-38 476.5,-38 476.5,-38 476.5,-38 381.71,-38 274,-46.07 197.17,-53.21"/>
<polygon fill="red" stroke="red" points="196.64,-49.75 187.01,-54.17 197.29,-56.72 196.64,-49.75"/>
</g>
<!-- label6 -->
<g id="node7" class="node">
<title>label6</title>
<path fill="#0ba172" stroke="black" d="M1134,-48C1134,-48 1282,-48 1282,-48 1288,-48 1294,-54 1294,-60 1294,-60 1294,-82 1294,-82 1294,-88 1288,-94 1282,-94 1282,-94 1134,-94 1134,-94 1128,-94 1122,-88 1122,-82 1122,-82 1122,-60 1122,-60 1122,-54 1128,-48 1134,-48"/>
<text text-anchor="middle" x="1150" y="-78.8" font-family="Times,serif" font-size="14.00">phys: 6</text>
<polyline fill="none" stroke="black" points="1122,-71 1178,-71"/>
<text text-anchor="middle" x="1150" y="-55.8" font-family="Times,serif" font-size="14.00">log: 0</text>
<polyline fill="none" stroke="black" points="1178,-48 1178,-94"/>
<text text-anchor="middle" x="1215" y="-67.3" font-family="Times,serif" font-size="14.00">val: 48879</text>
<polyline fill="none" stroke="black" points="1252,-48 1252,-94"/>
<text text-anchor="middle" x="1273" y="-78.8" font-family="Times,serif" font-size="14.00">n: 7</text>
<polyline fill="none" stroke="black" points="1252,-71 1294,-71"/>
<text text-anchor="middle" x="1273" y="-55.8" font-family="Times,serif" font-size="14.00">p: &#45;1</text>
</g>
<!-- label5&#45;&gt;label6 -->
<g id="edge6" class="edge">
<title>label5&#45;&gt;label6</title>
<path fill="none" stroke="#dce6e3" stroke-dasharray="5,2" d="M1086.08,-76.71C1097.67,-76.17 1109.8,-75.59 1121.72,-75.03"/>
</g>
<!-- label7 -->
<g id="node8" class="node">
<title>label7</title>
<path fill="#0ba172" stroke="black" d="M1342,-48C1342,-48 1490,-48 1490,-48 1496,-48 1502,-54 1502,-60 1502,-60 1502,-82 1502,-82 1502,-88 1496,-94 1490,-94 1490,-94 1342,-94 1342,-94 1336,-94 1330,-88 1330,-82 1330,-82 1330,-60 1330,-60 1330,-54 1336,-48 1342,-48"/>
<text text-anchor="middle" x="1358" y="-78.8" font-family="Times,serif" font-size="14.00">phys: 7</text>
<polyline fill="none" stroke="black" points="1330,-71 1386,-71"/>
<text text-anchor="middle" x="1358" y="-55.8" font-family="Times,serif" font-size="14.00">log: 1</text>
<polyline fill="none" stroke="black" points="1386,-48 1386,-94"/>
<text text-anchor="middle" x="1423" y="-67.3" font-family="Times,serif" font-size="14.00">val: 48879</text>
<polyline fill="none" stroke="black" points="1460,-48 1460,-94"/>
<text text-anchor="middle" x="1481" y="-78.8" font-family="Times,serif" font-size="14.00">n: 0</text>
<polyline fill="none" stroke="black" points="1460,-71 1502,-71"/>
<text text-anchor="middle" x="1481" y="-55.8" font-family="Times,serif" font-size="14.00">p: &#45;1</text>
</g>
<!-- label6&#45;&gt;label7 -->
<g id="edge7" class="edge">
<title>label6&#45;&gt;label7</title>
<path fill="none" stroke="#dce6e3" stroke-dasharray="5,2" d="M1294.28,-64.34C1306.01,-64.22 1318.06,-64.22 1329.79,-64.34"/>
</g>
<!-- label6&#45;&gt;label7 -->
<g id="edge14" class="edge">
<title>label6&#45;&gt;label7</title>
<path fill="none" stroke="#038c61" d="M1294.28,-77.66C1302.62,-77.75 1311.12,-77.77 1319.55,-77.73"/>
<polygon fill="#038c61" stroke="#038c61" points="1319.81,-81.23 1329.79,-77.66 1319.76,-74.23 1319.81,-81.23"/>
</g>
<!-- label7&#45;&gt;label0 -->
<g id="edge15" class="edge">
<title>label7&#45;&gt;label0</title>
<path fill="none" stroke="#038c61" d="M1334.09,-47.95C1254.1,-27.22 1127.88,0 1016.5,0 476.5,0 476.5,0 476.5,0 378.52,0 268.32,-20.73 191.56,-38.6"/>
<polygon fill="#038c61" stroke="#038c61" points="190.36,-35.29 181.43,-40.98 191.96,-42.1 190.36,-35.29"/>
</g>
</g>
</svg>
