<?xml version="1.0" encoding="UTF-8" standalone="no"?>
<!DOCTYPE svg PUBLIC "-//W3C//DTD SVG 1.1//EN"
 "http://www.w3.org/Graphics/SVG/1.1/DTD/svg11.dtd">
<!-- Generated by graphviz version 6.0.2 (20221011.1828)
 -->
<!-- Title: structs Pages: 1 -->
<svg width="1534pt" height="160pt"
 viewBox="0.00 0.00 1534.00 159.50" xmlns="http://www.w3.org/2000/svg" xmlns:xlink="http://www.w3.org/1999/xlink">
<g id="graph0" class="graph" transform="scale(1 1) rotate(0) translate(4 155.5)">
<title>structs</title>
<polygon fill="white" stroke="none" points="-4,4 -4,-155.5 1530,-155.5 1530,4 -4,4"/>
<!-- label0 -->
<g id="node1" class="node">
<title>label0</title>
<path fill="#f593a8" stroke="black" d="M12,-34C12,-34 175,-34 175,-34 181,-34 187,-40 187,-46 187,-46 187,-68 187,-68 187,-74 181,-80 175,-80 175,-80 12,-80 12,-80 6,-80 0,-74 0,-68 0,-68 0,-46 0,-46 0,-40 6,-34 12,-34"/>
<text text-anchor="middle" x="37.5" y="-64.8" font-family="Times,serif" font-size="14.00">phys: 0</text>
<polyline fill="none" stroke="black" points="0,-57 75,-57"/>
<text text-anchor="middle" x="37.5" y="-41.8" font-family="Times,serif" font-size="14.00">log: 48879</text>
<polyline fill="none" stroke="black" points="75,-34 75,-80"/>
<text text-anchor="middle" x="112" y="-53.3" font-family="Times,serif" font-size="14.00">val: 48879</text>
<polyline fill="none" stroke="black" points="149,-34 149,-80"/>
<text text-anchor="middle" x="168" y="-64.8" font-family="Times,serif" font-size="14.00">n: 2</text>
<polyline fill="none" stroke="black" points="149,-57 187,-57"/>
<text text-anchor="middle" x="168" y="-41.8" font-family="Times,serif" font-size="14.00">p: 5</text>
</g>
<!-- label1 -->
<g id="node2" class="node">
<title>label1</title>
<path fill="#0ba172" stroke="black" d="M235,-105C235,-105 383,-105 383,-105 389,-105 395,-111 395,-117 395,-117 395,-139 395,-139 395,-145 389,-151 383,-151 383,-151 235,-151 235,-151 229,-151 223,-145 223,-139 223,-139 223,-117 223,-117 223,-111 229,-105 235,-105"/>
<text text-anchor="middle" x="251" y="-135.8" font-family="Times,serif" font-size="14.00">phys: 1</text>
<polyline fill="none" stroke="black" points="223,-128 279,-128"/>
<text text-anchor="middle" x="251" y="-112.8" font-family="Times,serif" font-size="14.00">log: 0</text>
<polyline fill="none" stroke="black" points="279,-105 279,-151"/>
<text text-anchor="middle" x="316" y="-124.3" font-family="Times,serif" font-size="14.00">val: 48879</text>
<polyline fill="none" stroke="black" points="353,-105 353,-151"/>
<text text-anchor="middle" x="374" y="-135.8" font-family="Times,serif" font-size="14.00">n: 6</text>
<polyline fill="none" stroke="black" points="353,-128 395,-128"/>
<text text-anchor="middle" x="374" y="-112.8" font-family="Times,serif" font-size="14.00">p: &#45;1</text>
</g>
<!-- label0&#45;&gt;label1 -->
<g id="edge1" class="edge">
<title>label0&#45;&gt;label1</title>
<path fill="none" stroke="#dce6e3" stroke-dasharray="5,2" d="M163.82,-80.05C187.8,-88.03 214.68,-96.97 238.67,-104.94"/>
</g>
<!-- label2 -->
<g id="node3" class="node">
<title>label2</title>
<path fill="#72eb6c" stroke="black" d="M443,-67C443,-67 560,-67 560,-67 566,-67 572,-73 572,-79 572,-79 572,-101 572,-101 572,-107 566,-113 560,-113 560,-113 443,-113 443,-113 437,-113 431,-107 431,-101 431,-101 431,-79 431,-79 431,-73 437,-67 443,-67"/>
<text text-anchor="middle" x="459" y="-97.8" font-family="Times,serif" font-size="14.00">phys: 2</text>
<polyline fill="none" stroke="black" points="431,-90 487,-90"/>
<text text-anchor="middle" x="459" y="-74.8" font-family="Times,serif" font-size="14.00">log: 0</text>
<polyline fill="none" stroke="black" points="487,-67 487,-113"/>
<text text-anchor="middle" x="510.5" y="-86.3" font-family="Times,serif" font-size="14.00">val: 7</text>
<polyline fill="none" stroke="black" points="534,-67 534,-113"/>
<text text-anchor="middle" x="553" y="-97.8" font-family="Times,serif" font-size="14.00">n: 3</text>
<polyline fill="none" stroke="black" points="534,-90 572,-90"/>
<text text-anchor="middle" x="553" y="-74.8" font-family="Times,serif" font-size="14.00">p: 0</text>
</g>
<!-- label0&#45;&gt;label2 -->
<g id="edge8" class="edge">
<title>label0&#45;&gt;label2</title>
<path fill="none" stroke="red" d="M187.14,-64.53C257.59,-70.26 353.53,-78.05 420.63,-83.51"/>
<polygon fill="red" stroke="red" points="420.47,-87.01 430.73,-84.33 421.04,-80.03 420.47,-87.01"/>
</g>
<!-- label1&#45;&gt;label2 -->
<g id="edge2" class="edge">
<title>label1&#45;&gt;label2</title>
<path fill="none" stroke="#dce6e3" stroke-dasharray="5,2" d="M395.22,-111C407.11,-108.63 419.21,-106.22 430.76,-103.91"/>
</g>
<!-- label6 -->
<g id="node7" class="node">
<title>label6</title>
<path fill="#0ba172" stroke="black" d="M1158,-67C1158,-67 1306,-67 1306,-67 1312,-67 1318,-73 1318,-79 1318,-79 1318,-101 1318,-101 1318,-107 1312,-113 1306,-113 1306,-113 1158,-113 1158,-113 1152,-113 1146,-107 1146,-101 1146,-101 1146,-79 1146,-79 1146,-73 1152,-67 1158,-67"/>
<text text-anchor="middle" x="1174" y="-97.8" font-family="Times,serif" font-size="14.00">phys: 6</text>
<polyline fill="none" stroke="black" points="1146,-90 1202,-90"/>
<text text-anchor="middle" x="1174" y="-74.8" font-family="Times,serif" font-size="14.00">log: 1</text>
<polyline fill="none" stroke="black" points="1202,-67 1202,-113"/>
<text text-anchor="middle" x="1239" y="-86.3" font-family="Times,serif" font-size="14.00">val: 48879</text>
<polyline fill="none" stroke="black" points="1276,-67 1276,-113"/>
<text text-anchor="middle" x="1297" y="-97.8" font-family="Times,serif" font-size="14.00">n: 7</text>
<polyline fill="none" stroke="black" points="1276,-90 1318,-90"/>
<text text-anchor="middle" x="1297" y="-74.8" font-family="Times,serif" font-size="14.00">p: &#45;1</text>
</g>
<!-- label1&#45;&gt;label6 -->
<g id="edge13" class="edge">
<title>label1&#45;&gt;label6</title>
<path fill="none" stroke="#038c61" d="M395.36,-133.09C469.82,-137.1 580.77,-142 677.5,-142 677.5,-142 677.5,-142 860,-142 971.43,-142 1000.19,-141.97 1110,-123 1121.57,-121 1133.63,-118.38 1145.46,-115.49"/>
<polygon fill="#038c61" stroke="#038c61" points="1146.49,-118.84 1155.33,-113.01 1144.78,-112.05 1146.49,-118.84"/>
</g>
<!-- label3 -->
<g id="node4" class="node">
<title>label3</title>
<path fill="#72eb6c" stroke="black" d="M620,-67C620,-67 737,-67 737,-67 743,-67 749,-73 749,-79 749,-79 749,-101 749,-101 749,-107 743,-113 737,-113 737,-113 620,-113 620,-113 614,-113 608,-107 608,-101 608,-101 608,-79 608,-79 608,-73 614,-67 620,-67"/>
<text text-anchor="middle" x="636" y="-97.8" font-family="Times,serif" font-size="14.00">phys: 3</text>
<polyline fill="none" stroke="black" points="608,-90 664,-90"/>
<text text-anchor="middle" x="636" y="-74.8" font-family="Times,serif" font-size="14.00">log: 1</text>
<polyline fill="none" stroke="black" points="664,-67 664,-113"/>
<text text-anchor="middle" x="687.5" y="-86.3" font-family="Times,serif" font-size="14.00">val: 9</text>
<polyline fill="none" stroke="black" points="711,-67 711,-113"/>
<text text-anchor="middle" x="730" y="-97.8" font-family="Times,serif" font-size="14.00">n: 4</text>
<polyline fill="none" stroke="black" points="711,-90 749,-90"/>
<text text-anchor="middle" x="730" y="-74.8" font-family="Times,serif" font-size="14.00">p: 2</text>
</g>
<!-- label2&#45;&gt;label3 -->
<g id="edge3" class="edge">
<title>label2&#45;&gt;label3</title>
<path fill="none" stroke="#dce6e3" stroke-dasharray="5,2" d="M572.17,-83.38C583.89,-83.21 596.06,-83.21 607.79,-83.38"/>
</g>
<!-- label2&#45;&gt;label3 -->
<g id="edge9" class="edge">
<title>label2&#45;&gt;label3</title>
<path fill="none" stroke="red" d="M572.17,-96.62C580.5,-96.74 589.06,-96.78 597.53,-96.73"/>
<polygon fill="red" stroke="red" points="597.82,-100.23 607.79,-96.62 597.75,-93.23 597.82,-100.23"/>
</g>
<!-- label4 -->
<g id="node5" class="node">
<title>label4</title>
<path fill="#72eb6c" stroke="black" d="M797,-67C797,-67 921,-67 921,-67 927,-67 933,-73 933,-79 933,-79 933,-101 933,-101 933,-107 927,-113 921,-113 921,-113 797,-113 797,-113 791,-113 785,-107 785,-101 785,-101 785,-79 785,-79 785,-73 791,-67 797,-67"/>
<text text-anchor="middle" x="813" y="-97.8" font-family="Times,serif" font-size="14.00">phys: 4</text>
<polyline fill="none" stroke="black" points="785,-90 841,-90"/>
<text text-anchor="middle" x="813" y="-74.8" font-family="Times,serif" font-size="14.00">log: 2</text>
<polyline fill="none" stroke="black" points="841,-67 841,-113"/>
<text text-anchor="middle" x="868" y="-86.3" font-family="Times,serif" font-size="14.00">val: 12</text>
<polyline fill="none" stroke="black" points="895,-67 895,-113"/>
<text text-anchor="middle" x="914" y="-97.8" font-family="Times,serif" font-size="14.00">n: 5</text>
<polyline fill="none" stroke="black" points="895,-90 933,-90"/>
<text text-anchor="middle" x="914" y="-74.8" font-family="Times,serif" font-size="14.00">p: 3</text>
</g>
<!-- label3&#45;&gt;label4 -->
<g id="edge4" class="edge">
<title>label3&#45;&gt;label4</title>
<path fill="none" stroke="#dce6e3" stroke-dasharray="5,2" d="M749.02,-83.4C760.77,-83.22 773,-83.2 784.83,-83.35"/>
</g>
<!-- label3&#45;&gt;label4 -->
<g id="edge10" class="edge">
<title>label3&#45;&gt;label4</title>
<path fill="none" stroke="red" d="M749.02,-96.6C757.47,-96.73 766.16,-96.78 774.77,-96.74"/>
<polygon fill="red" stroke="red" points="774.86,-100.24 784.83,-96.65 774.8,-93.24 774.86,-100.24"/>
</g>
<!-- label5 -->
<g id="node6" class="node">
<title>label5</title>
<path fill="#72eb6c" stroke="black" d="M981,-67C981,-67 1098,-67 1098,-67 1104,-67 1110,-73 1110,-79 1110,-79 1110,-101 1110,-101 1110,-107 1104,-113 1098,-113 1098,-113 981,-113 981,-113 975,-113 969,-107 969,-101 969,-101 969,-79 969,-79 969,-73 975,-67 981,-67"/>
<text text-anchor="middle" x="997" y="-97.8" font-family="Times,serif" font-size="14.00">phys: 5</text>
<polyline fill="none" stroke="black" points="969,-90 1025,-90"/>
<text text-anchor="middle" x="997" y="-74.8" font-family="Times,serif" font-size="14.00">log: 3</text>
<polyline fill="none" stroke="black" points="1025,-67 1025,-113"/>
<text text-anchor="middle" x="1048.5" y="-86.3" font-family="Times,serif" font-size="14.00">val: 1</text>
<polyline fill="none" stroke="black" points="1072,-67 1072,-113"/>
<text text-anchor="middle" x="1091" y="-97.8" font-family="Times,serif" font-size="14.00">n: 0</text>
<polyline fill="none" stroke="black" points="1072,-90 1110,-90"/>
<text text-anchor="middle" x="1091" y="-74.8" font-family="Times,serif" font-size="14.00">p: 4</text>
</g>
<!-- label4&#45;&gt;label5 -->
<g id="edge5" class="edge">
<title>label4&#45;&gt;label5</title>
<path fill="none" stroke="#dce6e3" stroke-dasharray="5,2" d="M933.12,-83.35C944.96,-83.2 957.19,-83.22 968.95,-83.4"/>
</g>
<!-- label4&#45;&gt;label5 -->
<g id="edge11" class="edge">
<title>label4&#45;&gt;label5</title>
<path fill="none" stroke="red" d="M933.12,-96.65C941.63,-96.76 950.34,-96.78 958.94,-96.71"/>
<polygon fill="red" stroke="red" points="958.99,-100.21 968.95,-96.6 958.91,-93.21 958.99,-100.21"/>
</g>
<!-- label5&#45;&gt;label0 -->
<g id="edge12" class="edge">
<title>label5&#45;&gt;label0</title>
<path fill="none" stroke="red" d="M970.37,-67C958.04,-63.51 945.22,-60.31 933,-58 821.95,-37.03 792.52,-38 679.5,-38 500.5,-38 500.5,-38 500.5,-38 397.2,-38 279.28,-44.21 197.24,-49.53"/>
<polygon fill="red" stroke="red" points="196.91,-46.05 187.16,-50.19 197.37,-53.03 196.91,-46.05"/>
</g>
<!-- label5&#45;&gt;label6 -->
<g id="edge6" class="edge">
<title>label5&#45;&gt;label6</title>
<path fill="none" stroke="#dce6e3" stroke-dasharray="5,2" d="M1110.08,-90C1121.67,-90 1133.8,-90 1145.72,-90"/>
</g>
<!-- label7 -->
<g id="node8" class="node">
<title>label7</title>
<path fill="#0ba172" stroke="black" d="M1366,-67C1366,-67 1514,-67 1514,-67 1520,-67 1526,-73 1526,-79 1526,-79 1526,-101 1526,-101 1526,-107 1520,-113 1514,-113 1514,-113 1366,-113 1366,-113 1360,-113 1354,-107 1354,-101 1354,-101 1354,-79 1354,-79 1354,-73 1360,-67 1366,-67"/>
<text text-anchor="middle" x="1382" y="-97.8" font-family="Times,serif" font-size="14.00">phys: 7</text>
<polyline fill="none" stroke="black" points="1354,-90 1410,-90"/>
<text text-anchor="middle" x="1382" y="-74.8" font-family="Times,serif" font-size="14.00">log: 2</text>
<polyline fill="none" stroke="black" points="1410,-67 1410,-113"/>
<text text-anchor="middle" x="1447" y="-86.3" font-family="Times,serif" font-size="14.00">val: 48879</text>
<polyline fill="none" stroke="black" points="1484,-67 1484,-113"/>
<text text-anchor="middle" x="1505" y="-97.8" font-family="Times,serif" font-size="14.00">n: 0</text>
<polyline fill="none" stroke="black" points="1484,-90 1526,-90"/>
<text text-anchor="middle" x="1505" y="-74.8" font-family="Times,serif" font-size="14.00">p: &#45;1</text>
</g>
<!-- label6&#45;&gt;label7 -->
<g id="edge7" class="edge">
<title>label6&#45;&gt;label7</title>
<path fill="none" stroke="#dce6e3" stroke-dasharray="5,2" d="M1318.28,-83.34C1330.01,-83.22 1342.06,-83.22 1353.79,-83.34"/>
</g>
<!-- label6&#45;&gt;label7 -->
<g id="edge14" class="edge">
<title>label6&#45;&gt;label7</title>
<path fill="none" stroke="#038c61" d="M1318.28,-96.66C1326.62,-96.75 1335.12,-96.77 1343.55,-96.73"/>
<polygon fill="#038c61" stroke="#038c61" points="1343.81,-100.23 1353.79,-96.66 1343.76,-93.23 1343.81,-100.23"/>
</g>
<!-- label7&#45;&gt;label0 -->
<g id="edge15" class="edge">
<title>label7&#45;&gt;label0</title>
<path fill="none" stroke="#038c61" d="M1376.83,-66.94C1299.24,-40.27 1161.96,0 1040.5,0 500.5,0 500.5,0 500.5,0 396.58,0 279.13,-18.54 197.39,-34.47"/>
<polygon fill="#038c61" stroke="#038c61" points="196.24,-31.13 187.1,-36.5 197.59,-38 196.24,-31.13"/>
</g>
</g>
</svg>
