<?xml version="1.0" encoding="UTF-8" standalone="no"?>
<!DOCTYPE svg PUBLIC "-//W3C//DTD SVG 1.1//EN"
 "http://www.w3.org/Graphics/SVG/1.1/DTD/svg11.dtd">
<!-- Generated by graphviz version 6.0.2 (20221011.1828)
 -->
<!-- Title: structs Pages: 1 -->
<svg width="1565pt" height="185pt"
 viewBox="0.00 0.00 1565.00 185.14" xmlns="http://www.w3.org/2000/svg" xmlns:xlink="http://www.w3.org/1999/xlink">
<g id="graph0" class="graph" transform="scale(1 1) rotate(0) translate(4 181.14)">
<title>structs</title>
<polygon fill="white" stroke="none" points="-4,4 -4,-181.14 1561,-181.14 1561,4 -4,4"/>
<!-- label0 -->
<g id="node1" class="node">
<title>label0</title>
<path fill="#f593a8" stroke="black" d="M12,-79.62C12,-79.62 175,-79.62 175,-79.62 181,-79.62 187,-85.62 187,-91.62 187,-91.62 187,-113.62 187,-113.62 187,-119.62 181,-125.62 175,-125.62 175,-125.62 12,-125.62 12,-125.62 6,-125.62 0,-119.62 0,-113.62 0,-113.62 0,-91.62 0,-91.62 0,-85.62 6,-79.62 12,-79.62"/>
<text text-anchor="middle" x="37.5" y="-110.42" font-family="Times,serif" font-size="14.00">phys: 0</text>
<polyline fill="none" stroke="black" points="0,-102.62 75,-102.62"/>
<text text-anchor="middle" x="37.5" y="-87.42" font-family="Times,serif" font-size="14.00">log: 48879</text>
<polyline fill="none" stroke="black" points="75,-79.62 75,-125.62"/>
<text text-anchor="middle" x="112" y="-98.92" font-family="Times,serif" font-size="14.00">val: 48879</text>
<polyline fill="none" stroke="black" points="149,-79.62 149,-125.62"/>
<text text-anchor="middle" x="168" y="-110.42" font-family="Times,serif" font-size="14.00">n: 2</text>
<polyline fill="none" stroke="black" points="149,-102.62 187,-102.62"/>
<text text-anchor="middle" x="168" y="-87.42" font-family="Times,serif" font-size="14.00">p: 4</text>
</g>
<!-- label1 -->
<g id="node2" class="node">
<title>label1</title>
<path fill="#0ba172" stroke="black" d="M235,-53.62C235,-53.62 383,-53.62 383,-53.62 389,-53.62 395,-59.62 395,-65.62 395,-65.62 395,-87.62 395,-87.62 395,-93.62 389,-99.62 383,-99.62 383,-99.62 235,-99.62 235,-99.62 229,-99.62 223,-93.62 223,-87.62 223,-87.62 223,-65.62 223,-65.62 223,-59.62 229,-53.62 235,-53.62"/>
<text text-anchor="middle" x="251" y="-84.42" font-family="Times,serif" font-size="14.00">phys: 1</text>
<polyline fill="none" stroke="black" points="223,-76.62 279,-76.62"/>
<text text-anchor="middle" x="251" y="-61.42" font-family="Times,serif" font-size="14.00">log: 1</text>
<polyline fill="none" stroke="black" points="279,-53.62 279,-99.62"/>
<text text-anchor="middle" x="316" y="-72.92" font-family="Times,serif" font-size="14.00">val: 48879</text>
<polyline fill="none" stroke="black" points="353,-53.62 353,-99.62"/>
<text text-anchor="middle" x="374" y="-84.42" font-family="Times,serif" font-size="14.00">n: 6</text>
<polyline fill="none" stroke="black" points="353,-76.62 395,-76.62"/>
<text text-anchor="middle" x="374" y="-61.42" font-family="Times,serif" font-size="14.00">p: &#45;1</text>
</g>
<!-- label0&#45;&gt;label1 -->
<g id="edge1" class="edge">
<title>label0&#45;&gt;label1</title>
<path fill="none" stroke="#dce6e3" stroke-dasharray="5,2" d="M187.21,-91.33C199.03,-89.9 211.08,-88.43 222.77,-87"/>
</g>
<!-- label2 -->
<g id="node3" class="node">
<title>label2</title>
<path fill="#72eb6c" stroke="black" d="M443,-105.62C443,-105.62 560,-105.62 560,-105.62 566,-105.62 572,-111.62 572,-117.62 572,-117.62 572,-139.62 572,-139.62 572,-145.62 566,-151.62 560,-151.62 560,-151.62 443,-151.62 443,-151.62 437,-151.62 431,-145.62 431,-139.62 431,-139.62 431,-117.62 431,-117.62 431,-111.62 437,-105.62 443,-105.62"/>
<text text-anchor="middle" x="459" y="-136.42" font-family="Times,serif" font-size="14.00">phys: 2</text>
<polyline fill="none" stroke="black" points="431,-128.62 487,-128.62"/>
<text text-anchor="middle" x="459" y="-113.42" font-family="Times,serif" font-size="14.00">log: 0</text>
<polyline fill="none" stroke="black" points="487,-105.62 487,-151.62"/>
<text text-anchor="middle" x="510.5" y="-124.92" font-family="Times,serif" font-size="14.00">val: 7</text>
<polyline fill="none" stroke="black" points="534,-105.62 534,-151.62"/>
<text text-anchor="middle" x="553" y="-136.42" font-family="Times,serif" font-size="14.00">n: 3</text>
<polyline fill="none" stroke="black" points="534,-128.62 572,-128.62"/>
<text text-anchor="middle" x="553" y="-113.42" font-family="Times,serif" font-size="14.00">p: 0</text>
</g>
<!-- label0&#45;&gt;label2 -->
<g id="edge8" class="edge">
<title>label0&#45;&gt;label2</title>
<path fill="none" stroke="red" d="M187.14,-108.56C257.59,-113.07 353.53,-119.21 420.63,-123.51"/>
<polygon fill="red" stroke="red" points="420.52,-127.01 430.73,-124.16 420.97,-120.02 420.52,-127.01"/>
</g>
<!-- label1&#45;&gt;label2 -->
<g id="edge2" class="edge">
<title>label1&#45;&gt;label2</title>
<path fill="none" stroke="#dce6e3" stroke-dasharray="5,2" d="M394.39,-99.66C406.53,-102.97 418.91,-106.35 430.73,-109.58"/>
</g>
<!-- label6 -->
<g id="node7" class="node">
<title>label6</title>
<path fill="#0ba172" stroke="black" d="M1189,-29.62C1189,-29.62 1337,-29.62 1337,-29.62 1343,-29.62 1349,-35.62 1349,-41.62 1349,-41.62 1349,-63.62 1349,-63.62 1349,-69.62 1343,-75.62 1337,-75.62 1337,-75.62 1189,-75.62 1189,-75.62 1183,-75.62 1177,-69.62 1177,-63.62 1177,-63.62 1177,-41.62 1177,-41.62 1177,-35.62 1183,-29.62 1189,-29.62"/>
<text text-anchor="middle" x="1205" y="-60.42" font-family="Times,serif" font-size="14.00">phys: 6</text>
<polyline fill="none" stroke="black" points="1177,-52.62 1233,-52.62"/>
<text text-anchor="middle" x="1205" y="-37.42" font-family="Times,serif" font-size="14.00">log: 2</text>
<polyline fill="none" stroke="black" points="1233,-29.62 1233,-75.62"/>
<text text-anchor="middle" x="1270" y="-48.92" font-family="Times,serif" font-size="14.00">val: 48879</text>
<polyline fill="none" stroke="black" points="1307,-29.62 1307,-75.62"/>
<text text-anchor="middle" x="1328" y="-60.42" font-family="Times,serif" font-size="14.00">n: 7</text>
<polyline fill="none" stroke="black" points="1307,-52.62 1349,-52.62"/>
<text text-anchor="middle" x="1328" y="-37.42" font-family="Times,serif" font-size="14.00">p: &#45;1</text>
</g>
<!-- label1&#45;&gt;label6 -->
<g id="edge13" class="edge">
<title>label1&#45;&gt;label6</title>
<path fill="none" stroke="#038c61" d="M395.14,-62.8C469.46,-51.93 580.32,-38.62 677.5,-38.62 677.5,-38.62 677.5,-38.62 860,-38.62 964.97,-38.62 1085.28,-43.45 1166.71,-47.44"/>
<polygon fill="#038c61" stroke="#038c61" points="1166.78,-50.94 1176.94,-47.94 1167.13,-43.95 1166.78,-50.94"/>
</g>
<!-- label3 -->
<g id="node4" class="node">
<title>label3</title>
<path fill="#72eb6c" stroke="black" d="M620,-105.62C620,-105.62 737,-105.62 737,-105.62 743,-105.62 749,-111.62 749,-117.62 749,-117.62 749,-139.62 749,-139.62 749,-145.62 743,-151.62 737,-151.62 737,-151.62 620,-151.62 620,-151.62 614,-151.62 608,-145.62 608,-139.62 608,-139.62 608,-117.62 608,-117.62 608,-111.62 614,-105.62 620,-105.62"/>
<text text-anchor="middle" x="636" y="-136.42" font-family="Times,serif" font-size="14.00">phys: 3</text>
<polyline fill="none" stroke="black" points="608,-128.62 664,-128.62"/>
<text text-anchor="middle" x="636" y="-113.42" font-family="Times,serif" font-size="14.00">log: 1</text>
<polyline fill="none" stroke="black" points="664,-105.62 664,-151.62"/>
<text text-anchor="middle" x="687.5" y="-124.92" font-family="Times,serif" font-size="14.00">val: 9</text>
<polyline fill="none" stroke="black" points="711,-105.62 711,-151.62"/>
<text text-anchor="middle" x="730" y="-136.42" font-family="Times,serif" font-size="14.00">n: 4</text>
<polyline fill="none" stroke="black" points="711,-128.62 749,-128.62"/>
<text text-anchor="middle" x="730" y="-113.42" font-family="Times,serif" font-size="14.00">p: 2</text>
</g>
<!-- label2&#45;&gt;label3 -->
<g id="edge3" class="edge">
<title>label2&#45;&gt;label3</title>
<path fill="none" stroke="#dce6e3" stroke-dasharray="5,2" d="M572.17,-122C583.89,-121.83 596.06,-121.83 607.79,-122"/>
</g>
<!-- label2&#45;&gt;label3 -->
<g id="edge9" class="edge">
<title>label2&#45;&gt;label3</title>
<path fill="none" stroke="red" d="M572.17,-135.25C580.5,-135.37 589.06,-135.4 597.53,-135.35"/>
<polygon fill="red" stroke="red" points="597.82,-138.85 607.79,-135.25 597.75,-131.85 597.82,-138.85"/>
</g>
<!-- label4 -->
<g id="node5" class="node">
<title>label4</title>
<path fill="#72eb6c" stroke="black" d="M797,-105.62C797,-105.62 921,-105.62 921,-105.62 927,-105.62 933,-111.62 933,-117.62 933,-117.62 933,-139.62 933,-139.62 933,-145.62 927,-151.62 921,-151.62 921,-151.62 797,-151.62 797,-151.62 791,-151.62 785,-145.62 785,-139.62 785,-139.62 785,-117.62 785,-117.62 785,-111.62 791,-105.62 797,-105.62"/>
<text text-anchor="middle" x="813" y="-136.42" font-family="Times,serif" font-size="14.00">phys: 4</text>
<polyline fill="none" stroke="black" points="785,-128.62 841,-128.62"/>
<text text-anchor="middle" x="813" y="-113.42" font-family="Times,serif" font-size="14.00">log: 2</text>
<polyline fill="none" stroke="black" points="841,-105.62 841,-151.62"/>
<text text-anchor="middle" x="868" y="-124.92" font-family="Times,serif" font-size="14.00">val: 12</text>
<polyline fill="none" stroke="black" points="895,-105.62 895,-151.62"/>
<text text-anchor="middle" x="914" y="-136.42" font-family="Times,serif" font-size="14.00">n: 0</text>
<polyline fill="none" stroke="black" points="895,-128.62 933,-128.62"/>
<text text-anchor="middle" x="914" y="-113.42" font-family="Times,serif" font-size="14.00">p: 3</text>
</g>
<!-- label3&#45;&gt;label4 -->
<g id="edge4" class="edge">
<title>label3&#45;&gt;label4</title>
<path fill="none" stroke="#dce6e3" stroke-dasharray="5,2" d="M749.02,-122.02C760.77,-121.84 773,-121.83 784.83,-121.97"/>
</g>
<!-- label3&#45;&gt;label4 -->
<g id="edge10" class="edge">
<title>label3&#45;&gt;label4</title>
<path fill="none" stroke="red" d="M749.02,-135.23C757.47,-135.36 766.16,-135.4 774.77,-135.36"/>
<polygon fill="red" stroke="red" points="774.86,-138.86 784.83,-135.28 774.8,-131.86 774.86,-138.86"/>
</g>
<!-- label4&#45;&gt;label0 -->
<g id="edge11" class="edge">
<title>label4&#45;&gt;label0</title>
<path fill="none" stroke="red" d="M790.63,-151.64C777.01,-155.38 762.67,-158.66 749,-160.62 517.22,-193.94 453.42,-172.29 223,-130.62 214.59,-129.1 205.9,-127.43 197.18,-125.68"/>
<polygon fill="red" stroke="red" points="197.84,-122.24 187.34,-123.68 196.44,-129.1 197.84,-122.24"/>
</g>
<!-- label5 -->
<g id="node6" class="node">
<title>label5</title>
<path fill="#0ba172" stroke="black" d="M981,-67.62C981,-67.62 1129,-67.62 1129,-67.62 1135,-67.62 1141,-73.62 1141,-79.62 1141,-79.62 1141,-101.62 1141,-101.62 1141,-107.62 1135,-113.62 1129,-113.62 1129,-113.62 981,-113.62 981,-113.62 975,-113.62 969,-107.62 969,-101.62 969,-101.62 969,-79.62 969,-79.62 969,-73.62 975,-67.62 981,-67.62"/>
<text text-anchor="middle" x="997" y="-98.42" font-family="Times,serif" font-size="14.00">phys: 5</text>
<polyline fill="none" stroke="black" points="969,-90.62 1025,-90.62"/>
<text text-anchor="middle" x="997" y="-75.42" font-family="Times,serif" font-size="14.00">log: 0</text>
<polyline fill="none" stroke="black" points="1025,-67.62 1025,-113.62"/>
<text text-anchor="middle" x="1062" y="-86.92" font-family="Times,serif" font-size="14.00">val: 48879</text>
<polyline fill="none" stroke="black" points="1099,-67.62 1099,-113.62"/>
<text text-anchor="middle" x="1120" y="-98.42" font-family="Times,serif" font-size="14.00">n: 1</text>
<polyline fill="none" stroke="black" points="1099,-90.62 1141,-90.62"/>
<text text-anchor="middle" x="1120" y="-75.42" font-family="Times,serif" font-size="14.00">p: &#45;1</text>
</g>
<!-- label4&#45;&gt;label5 -->
<g id="edge5" class="edge">
<title>label4&#45;&gt;label5</title>
<path fill="none" stroke="#dce6e3" stroke-dasharray="5,2" d="M933.07,-114.31C944.77,-112.02 956.98,-109.63 968.94,-107.29"/>
</g>
<!-- label5&#45;&gt;label1 -->
<g id="edge12" class="edge">
<title>label5&#45;&gt;label1</title>
<path fill="none" stroke="#038c61" d="M968.79,-89.02C829.01,-86.39 551.95,-81.18 405.65,-78.42"/>
<polygon fill="#038c61" stroke="#038c61" points="405.41,-74.92 395.35,-78.23 405.28,-81.92 405.41,-74.92"/>
</g>
<!-- label5&#45;&gt;label6 -->
<g id="edge6" class="edge">
<title>label5&#45;&gt;label6</title>
<path fill="none" stroke="#dce6e3" stroke-dasharray="5,2" d="M1141.28,-74.89C1153.01,-72.73 1165.06,-70.51 1176.79,-68.34"/>
</g>
<!-- label7 -->
<g id="node8" class="node">
<title>label7</title>
<path fill="#0ba172" stroke="black" d="M1397,-29.62C1397,-29.62 1545,-29.62 1545,-29.62 1551,-29.62 1557,-35.62 1557,-41.62 1557,-41.62 1557,-63.62 1557,-63.62 1557,-69.62 1551,-75.62 1545,-75.62 1545,-75.62 1397,-75.62 1397,-75.62 1391,-75.62 1385,-69.62 1385,-63.62 1385,-63.62 1385,-41.62 1385,-41.62 1385,-35.62 1391,-29.62 1397,-29.62"/>
<text text-anchor="middle" x="1413" y="-60.42" font-family="Times,serif" font-size="14.00">phys: 7</text>
<polyline fill="none" stroke="black" points="1385,-52.62 1441,-52.62"/>
<text text-anchor="middle" x="1413" y="-37.42" font-family="Times,serif" font-size="14.00">log: 3</text>
<polyline fill="none" stroke="black" points="1441,-29.62 1441,-75.62"/>
<text text-anchor="middle" x="1478" y="-48.92" font-family="Times,serif" font-size="14.00">val: 48879</text>
<polyline fill="none" stroke="black" points="1515,-29.62 1515,-75.62"/>
<text text-anchor="middle" x="1536" y="-60.42" font-family="Times,serif" font-size="14.00">n: 0</text>
<polyline fill="none" stroke="black" points="1515,-52.62 1557,-52.62"/>
<text text-anchor="middle" x="1536" y="-37.42" font-family="Times,serif" font-size="14.00">p: &#45;1</text>
</g>
<!-- label6&#45;&gt;label7 -->
<g id="edge7" class="edge">
<title>label6&#45;&gt;label7</title>
<path fill="none" stroke="#dce6e3" stroke-dasharray="5,2" d="M1349.28,-45.96C1361.01,-45.84 1373.06,-45.84 1384.79,-45.97"/>
</g>
<!-- label6&#45;&gt;label7 -->
<g id="edge14" class="edge">
<title>label6&#45;&gt;label7</title>
<path fill="none" stroke="#038c61" d="M1349.28,-59.29C1357.62,-59.37 1366.12,-59.39 1374.55,-59.36"/>
<polygon fill="#038c61" stroke="#038c61" points="1374.81,-62.86 1384.79,-59.28 1374.76,-55.86 1374.81,-62.86"/>
</g>
<!-- label7&#45;&gt;label0 -->
<g id="edge15" class="edge">
<title>label7&#45;&gt;label0</title>
<path fill="none" stroke="#038c61" d="M1394.68,-29.57C1379.67,-25.69 1363.93,-22.12 1349,-19.62 1220.29,1.87 1186.5,-0.62 1056,-0.62 500.5,-0.62 500.5,-0.62 500.5,-0.62 375.69,-0.62 342.52,-7.69 223,-43.62 196.76,-51.51 168.97,-63.74 145.98,-75.02"/>
<polygon fill="#038c61" stroke="#038c61" points="144.15,-72.02 136.76,-79.62 147.27,-78.29 144.15,-72.02"/>
</g>
</g>
</svg>
