<?xml version="1.0" encoding="UTF-8" standalone="no"?>
<!DOCTYPE svg PUBLIC "-//W3C//DTD SVG 1.1//EN"
 "http://www.w3.org/Graphics/SVG/1.1/DTD/svg11.dtd">
<!-- Generated by graphviz version 6.0.2 (20221011.1828)
 -->
<!-- Title: structs Pages: 1 -->
<svg width="1596pt" height="226pt"
 viewBox="0.00 0.00 1596.00 226.00" xmlns="http://www.w3.org/2000/svg" xmlns:xlink="http://www.w3.org/1999/xlink">
<g id="graph0" class="graph" transform="scale(1 1) rotate(0) translate(4 222)">
<title>structs</title>
<polygon fill="white" stroke="none" points="-4,4 -4,-222 1592,-222 1592,4 -4,4"/>
<!-- label0 -->
<g id="node1" class="node">
<title>label0</title>
<path fill="#f593a8" stroke="black" d="M12,-34C12,-34 175,-34 175,-34 181,-34 187,-40 187,-46 187,-46 187,-68 187,-68 187,-74 181,-80 175,-80 175,-80 12,-80 12,-80 6,-80 0,-74 0,-68 0,-68 0,-46 0,-46 0,-40 6,-34 12,-34"/>
<text text-anchor="middle" x="37.5" y="-64.8" font-family="Times,serif" font-size="14.00">phys: 0</text>
<polyline fill="none" stroke="black" points="0,-57 75,-57"/>
<text text-anchor="middle" x="37.5" y="-41.8" font-family="Times,serif" font-size="14.00">log: 48879</text>
<polyline fill="none" stroke="black" points="75,-34 75,-80"/>
<text text-anchor="middle" x="112" y="-53.3" font-family="Times,serif" font-size="14.00">val: 48879</text>
<polyline fill="none" stroke="black" points="149,-34 149,-80"/>
<text text-anchor="middle" x="168" y="-64.8" font-family="Times,serif" font-size="14.00">n: 2</text>
<polyline fill="none" stroke="black" points="149,-57 187,-57"/>
<text text-anchor="middle" x="168" y="-41.8" font-family="Times,serif" font-size="14.00">p: 4</text>
</g>
<!-- label1 -->
<g id="node2" class="node">
<title>label1</title>
<path fill="#0ba172" stroke="black" d="M235,-144C235,-144 383,-144 383,-144 389,-144 395,-150 395,-156 395,-156 395,-178 395,-178 395,-184 389,-190 383,-190 383,-190 235,-190 235,-190 229,-190 223,-184 223,-178 223,-178 223,-156 223,-156 223,-150 229,-144 235,-144"/>
<text text-anchor="middle" x="251" y="-174.8" font-family="Times,serif" font-size="14.00">phys: 1</text>
<polyline fill="none" stroke="black" points="223,-167 279,-167"/>
<text text-anchor="middle" x="251" y="-151.8" font-family="Times,serif" font-size="14.00">log: 2</text>
<polyline fill="none" stroke="black" points="279,-144 279,-190"/>
<text text-anchor="middle" x="316" y="-163.3" font-family="Times,serif" font-size="14.00">val: 48879</text>
<polyline fill="none" stroke="black" points="353,-144 353,-190"/>
<text text-anchor="middle" x="374" y="-174.8" font-family="Times,serif" font-size="14.00">n: 6</text>
<polyline fill="none" stroke="black" points="353,-167 395,-167"/>
<text text-anchor="middle" x="374" y="-151.8" font-family="Times,serif" font-size="14.00">p: &#45;1</text>
</g>
<!-- label0&#45;&gt;label1 -->
<g id="edge1" class="edge">
<title>label0&#45;&gt;label1</title>
<path fill="none" stroke="#dce6e3" stroke-dasharray="5,2" d="M139.26,-80.06C175.69,-98.83 226.88,-125.21 263.3,-143.97"/>
</g>
<!-- label2 -->
<g id="node3" class="node">
<title>label2</title>
<path fill="#72eb6c" stroke="black" d="M443,-92C443,-92 560,-92 560,-92 566,-92 572,-98 572,-104 572,-104 572,-126 572,-126 572,-132 566,-138 560,-138 560,-138 443,-138 443,-138 437,-138 431,-132 431,-126 431,-126 431,-104 431,-104 431,-98 437,-92 443,-92"/>
<text text-anchor="middle" x="459" y="-122.8" font-family="Times,serif" font-size="14.00">phys: 2</text>
<polyline fill="none" stroke="black" points="431,-115 487,-115"/>
<text text-anchor="middle" x="459" y="-99.8" font-family="Times,serif" font-size="14.00">log: 0</text>
<polyline fill="none" stroke="black" points="487,-92 487,-138"/>
<text text-anchor="middle" x="510.5" y="-111.3" font-family="Times,serif" font-size="14.00">val: 7</text>
<polyline fill="none" stroke="black" points="534,-92 534,-138"/>
<text text-anchor="middle" x="553" y="-122.8" font-family="Times,serif" font-size="14.00">n: 4</text>
<polyline fill="none" stroke="black" points="534,-115 572,-115"/>
<text text-anchor="middle" x="553" y="-99.8" font-family="Times,serif" font-size="14.00">p: 0</text>
</g>
<!-- label0&#45;&gt;label2 -->
<g id="edge8" class="edge">
<title>label0&#45;&gt;label2</title>
<path fill="none" stroke="red" d="M187.14,-70.23C257.59,-80.3 353.53,-94 420.63,-103.59"/>
<polygon fill="red" stroke="red" points="420.33,-107.08 430.73,-105.03 421.32,-100.15 420.33,-107.08"/>
</g>
<!-- label1&#45;&gt;label2 -->
<g id="edge2" class="edge">
<title>label1&#45;&gt;label2</title>
<path fill="none" stroke="#dce6e3" stroke-dasharray="5,2" d="M394.39,-143.96C406.53,-140.65 418.91,-137.27 430.73,-134.05"/>
</g>
<!-- label6 -->
<g id="node7" class="node">
<title>label6</title>
<path fill="#0ba172" stroke="black" d="M1220,-105C1220,-105 1368,-105 1368,-105 1374,-105 1380,-111 1380,-117 1380,-117 1380,-139 1380,-139 1380,-145 1374,-151 1368,-151 1368,-151 1220,-151 1220,-151 1214,-151 1208,-145 1208,-139 1208,-139 1208,-117 1208,-117 1208,-111 1214,-105 1220,-105"/>
<text text-anchor="middle" x="1236" y="-135.8" font-family="Times,serif" font-size="14.00">phys: 6</text>
<polyline fill="none" stroke="black" points="1208,-128 1264,-128"/>
<text text-anchor="middle" x="1236" y="-112.8" font-family="Times,serif" font-size="14.00">log: 3</text>
<polyline fill="none" stroke="black" points="1264,-105 1264,-151"/>
<text text-anchor="middle" x="1301" y="-124.3" font-family="Times,serif" font-size="14.00">val: 48879</text>
<polyline fill="none" stroke="black" points="1338,-105 1338,-151"/>
<text text-anchor="middle" x="1359" y="-135.8" font-family="Times,serif" font-size="14.00">n: 7</text>
<polyline fill="none" stroke="black" points="1338,-128 1380,-128"/>
<text text-anchor="middle" x="1359" y="-112.8" font-family="Times,serif" font-size="14.00">p: &#45;1</text>
</g>
<!-- label1&#45;&gt;label6 -->
<g id="edge13" class="edge">
<title>label1&#45;&gt;label6</title>
<path fill="none" stroke="#038c61" d="M395.13,-184.91C472.46,-199.6 589.86,-218 693,-218 693,-218 693,-218 891,-218 1008.45,-218 1140.65,-180.96 1220.34,-154.41"/>
<polygon fill="#038c61" stroke="#038c61" points="1221.91,-157.57 1230.27,-151.06 1219.67,-150.94 1221.91,-157.57"/>
</g>
<!-- label3 -->
<g id="node4" class="node">
<title>label3</title>
<path fill="#0ba172" stroke="black" d="M620,-105C620,-105 768,-105 768,-105 774,-105 780,-111 780,-117 780,-117 780,-139 780,-139 780,-145 774,-151 768,-151 768,-151 620,-151 620,-151 614,-151 608,-145 608,-139 608,-139 608,-117 608,-117 608,-111 614,-105 620,-105"/>
<text text-anchor="middle" x="636" y="-135.8" font-family="Times,serif" font-size="14.00">phys: 3</text>
<polyline fill="none" stroke="black" points="608,-128 664,-128"/>
<text text-anchor="middle" x="636" y="-112.8" font-family="Times,serif" font-size="14.00">log: 0</text>
<polyline fill="none" stroke="black" points="664,-105 664,-151"/>
<text text-anchor="middle" x="701" y="-124.3" font-family="Times,serif" font-size="14.00">val: 48879</text>
<polyline fill="none" stroke="black" points="738,-105 738,-151"/>
<text text-anchor="middle" x="759" y="-135.8" font-family="Times,serif" font-size="14.00">n: 5</text>
<polyline fill="none" stroke="black" points="738,-128 780,-128"/>
<text text-anchor="middle" x="759" y="-112.8" font-family="Times,serif" font-size="14.00">p: &#45;1</text>
</g>
<!-- label2&#45;&gt;label3 -->
<g id="edge3" class="edge">
<title>label2&#45;&gt;label3</title>
<path fill="none" stroke="#dce6e3" stroke-dasharray="5,2" d="M572.08,-119.75C583.67,-120.54 595.8,-121.37 607.72,-122.18"/>
</g>
<!-- label4 -->
<g id="node5" class="node">
<title>label4</title>
<path fill="#72eb6c" stroke="black" d="M828,-53C828,-53 952,-53 952,-53 958,-53 964,-59 964,-65 964,-65 964,-87 964,-87 964,-93 958,-99 952,-99 952,-99 828,-99 828,-99 822,-99 816,-93 816,-87 816,-87 816,-65 816,-65 816,-59 822,-53 828,-53"/>
<text text-anchor="middle" x="844" y="-83.8" font-family="Times,serif" font-size="14.00">phys: 4</text>
<polyline fill="none" stroke="black" points="816,-76 872,-76"/>
<text text-anchor="middle" x="844" y="-60.8" font-family="Times,serif" font-size="14.00">log: 1</text>
<polyline fill="none" stroke="black" points="872,-53 872,-99"/>
<text text-anchor="middle" x="899" y="-72.3" font-family="Times,serif" font-size="14.00">val: 12</text>
<polyline fill="none" stroke="black" points="926,-53 926,-99"/>
<text text-anchor="middle" x="945" y="-83.8" font-family="Times,serif" font-size="14.00">n: 0</text>
<polyline fill="none" stroke="black" points="926,-76 964,-76"/>
<text text-anchor="middle" x="945" y="-60.8" font-family="Times,serif" font-size="14.00">p: 2</text>
</g>
<!-- label2&#45;&gt;label4 -->
<g id="edge9" class="edge">
<title>label2&#45;&gt;label4</title>
<path fill="none" stroke="red" d="M572.14,-101.37C584.07,-99.35 596.37,-97.46 608,-96 674.13,-87.72 749.48,-82.58 805.49,-79.6"/>
<polygon fill="red" stroke="red" points="805.91,-83.08 815.72,-79.06 805.55,-76.09 805.91,-83.08"/>
</g>
<!-- label3&#45;&gt;label4 -->
<g id="edge4" class="edge">
<title>label3&#45;&gt;label4</title>
<path fill="none" stroke="#dce6e3" stroke-dasharray="5,2" d="M780.09,-105.19C792,-102 804.16,-98.74 815.82,-95.61"/>
</g>
<!-- label5 -->
<g id="node6" class="node">
<title>label5</title>
<path fill="#0ba172" stroke="black" d="M1012,-105C1012,-105 1160,-105 1160,-105 1166,-105 1172,-111 1172,-117 1172,-117 1172,-139 1172,-139 1172,-145 1166,-151 1160,-151 1160,-151 1012,-151 1012,-151 1006,-151 1000,-145 1000,-139 1000,-139 1000,-117 1000,-117 1000,-111 1006,-105 1012,-105"/>
<text text-anchor="middle" x="1028" y="-135.8" font-family="Times,serif" font-size="14.00">phys: 5</text>
<polyline fill="none" stroke="black" points="1000,-128 1056,-128"/>
<text text-anchor="middle" x="1028" y="-112.8" font-family="Times,serif" font-size="14.00">log: 1</text>
<polyline fill="none" stroke="black" points="1056,-105 1056,-151"/>
<text text-anchor="middle" x="1093" y="-124.3" font-family="Times,serif" font-size="14.00">val: 48879</text>
<polyline fill="none" stroke="black" points="1130,-105 1130,-151"/>
<text text-anchor="middle" x="1151" y="-135.8" font-family="Times,serif" font-size="14.00">n: 1</text>
<polyline fill="none" stroke="black" points="1130,-128 1172,-128"/>
<text text-anchor="middle" x="1151" y="-112.8" font-family="Times,serif" font-size="14.00">p: &#45;1</text>
</g>
<!-- label3&#45;&gt;label5 -->
<g id="edge11" class="edge">
<title>label3&#45;&gt;label5</title>
<path fill="none" stroke="#038c61" d="M780.11,-128C841.91,-128 925.58,-128 989.63,-128"/>
<polygon fill="#038c61" stroke="#038c61" points="989.74,-131.5 999.74,-128 989.74,-124.5 989.74,-131.5"/>
</g>
<!-- label4&#45;&gt;label0 -->
<g id="edge10" class="edge">
<title>label4&#45;&gt;label0</title>
<path fill="none" stroke="red" d="M815.92,-74.25C673.86,-70.86 360.15,-63.35 197.23,-59.46"/>
<polygon fill="red" stroke="red" points="197.28,-55.96 187.19,-59.22 197.11,-62.95 197.28,-55.96"/>
</g>
<!-- label4&#45;&gt;label5 -->
<g id="edge5" class="edge">
<title>label4&#45;&gt;label5</title>
<path fill="none" stroke="#dce6e3" stroke-dasharray="5,2" d="M964.07,-95.58C975.77,-98.72 987.98,-101.99 999.94,-105.2"/>
</g>
<!-- label5&#45;&gt;label1 -->
<g id="edge12" class="edge">
<title>label5&#45;&gt;label1</title>
<path fill="none" stroke="#038c61" d="M999.74,-138C987.74,-139.37 975.56,-140.73 964,-142 882.28,-150.95 862.08,-156.25 780,-161 650.5,-168.5 500.61,-169 405.58,-168.3"/>
<polygon fill="#038c61" stroke="#038c61" points="405.44,-164.8 395.42,-168.22 405.39,-171.8 405.44,-164.8"/>
</g>
<!-- label5&#45;&gt;label6 -->
<g id="edge6" class="edge">
<title>label5&#45;&gt;label6</title>
<path fill="none" stroke="#dce6e3" stroke-dasharray="5,2" d="M1172.28,-128C1184.01,-128 1196.06,-128 1207.79,-128"/>
</g>
<!-- label7 -->
<g id="node8" class="node">
<title>label7</title>
<path fill="#0ba172" stroke="black" d="M1428,-105C1428,-105 1576,-105 1576,-105 1582,-105 1588,-111 1588,-117 1588,-117 1588,-139 1588,-139 1588,-145 1582,-151 1576,-151 1576,-151 1428,-151 1428,-151 1422,-151 1416,-145 1416,-139 1416,-139 1416,-117 1416,-117 1416,-111 1422,-105 1428,-105"/>
<text text-anchor="middle" x="1444" y="-135.8" font-family="Times,serif" font-size="14.00">phys: 7</text>
<polyline fill="none" stroke="black" points="1416,-128 1472,-128"/>
<text text-anchor="middle" x="1444" y="-112.8" font-family="Times,serif" font-size="14.00">log: 4</text>
<polyline fill="none" stroke="black" points="1472,-105 1472,-151"/>
<text text-anchor="middle" x="1509" y="-124.3" font-family="Times,serif" font-size="14.00">val: 48879</text>
<polyline fill="none" stroke="black" points="1546,-105 1546,-151"/>
<text text-anchor="middle" x="1567" y="-135.8" font-family="Times,serif" font-size="14.00">n: 0</text>
<polyline fill="none" stroke="black" points="1546,-128 1588,-128"/>
<text text-anchor="middle" x="1567" y="-112.8" font-family="Times,serif" font-size="14.00">p: &#45;1</text>
</g>
<!-- label6&#45;&gt;label7 -->
<g id="edge7" class="edge">
<title>label6&#45;&gt;label7</title>
<path fill="none" stroke="#dce6e3" stroke-dasharray="5,2" d="M1380.28,-121.34C1392.01,-121.22 1404.06,-121.22 1415.79,-121.34"/>
</g>
<!-- label6&#45;&gt;label7 -->
<g id="edge14" class="edge">
<title>label6&#45;&gt;label7</title>
<path fill="none" stroke="#038c61" d="M1380.28,-134.66C1388.62,-134.75 1397.12,-134.77 1405.55,-134.73"/>
<polygon fill="#038c61" stroke="#038c61" points="1405.81,-138.23 1415.79,-134.66 1405.76,-131.23 1405.81,-138.23"/>
</g>
<!-- label7&#45;&gt;label0 -->
<g id="edge15" class="edge">
<title>label7&#45;&gt;label0</title>
<path fill="none" stroke="#038c61" d="M1457.35,-104.97C1383.32,-68.12 1227.5,0 1087,0 500.5,0 500.5,0 500.5,0 396.58,0 279.13,-18.54 197.39,-34.47"/>
<polygon fill="#038c61" stroke="#038c61" points="196.24,-31.13 187.1,-36.5 197.59,-38 196.24,-31.13"/>
</g>
</g>
</svg>
